<svg id="svg" version="1.1" xmlns="http://www.w3.org/2000/svg" xmlns:xlink="http://www.w3.org/1999/xlink" width="400" height="171.2313003452244" viewBox="0, 0, 400,171.2313003452244"><g id="svgg"><path id="path0" d="M81.846 31.978 C 80.880 32.708,79.378 33.844,78.508 34.503 C 76.881 35.736,71.036 40.210,68.151 42.432 C 67.256 43.121,65.522 44.448,64.298 45.381 C 63.074 46.314,61.455 47.551,60.702 48.131 C 58.904 49.516,52.514 54.398,47.164 58.476 C 46.670 58.853,44.059 60.856,41.361 62.928 C 34.854 67.926,33.117 69.255,32.168 69.961 C 31.732 70.286,31.328 70.725,31.272 70.935 C 31.094 71.599,31.150 114.836,31.329 115.308 L 31.494 115.741 33.170 114.487 C 37.718 111.085,43.126 107.957,48.716 105.495 C 49.846 104.997,51.002 104.487,51.284 104.362 C 53.457 103.398,59.110 101.395,61.901 100.600 C 62.466 100.439,63.121 100.240,63.356 100.157 C 63.714 100.032,64.709 99.765,67.380 99.076 C 74.375 97.272,85.042 96.876,95.548 98.029 C 97.610 98.255,98.963 98.437,102.483 98.961 C 103.714 99.144,107.890 99.947,108.733 100.162 C 109.062 100.246,109.949 100.449,110.702 100.613 C 111.455 100.777,112.727 101.083,113.527 101.293 C 115.757 101.879,116.754 102.092,116.950 102.027 C 117.325 101.902,113.480 99.764,110.445 98.411 C 110.116 98.264,109.320 97.907,108.678 97.617 C 108.036 97.326,107.438 97.089,107.349 97.089 C 107.260 97.089,107.053 97.012,106.890 96.917 C 104.322 95.428,94.139 92.478,88.014 91.448 C 81.325 90.323,70.803 90.317,64.298 91.436 C 61.315 91.949,58.378 92.514,57.620 92.721 C 57.149 92.849,56.263 93.081,55.651 93.237 C 53.469 93.790,48.941 95.269,47.517 95.893 C 47.329 95.975,46.789 96.208,46.318 96.411 C 45.848 96.613,44.670 97.164,43.701 97.635 C 42.733 98.106,41.827 98.448,41.689 98.395 C 41.385 98.278,41.304 76.940,41.607 76.375 C 41.754 76.101,43.233 74.917,51.027 68.835 C 51.922 68.137,53.540 66.861,54.623 66.000 C 55.706 65.139,57.710 63.567,59.075 62.506 C 60.441 61.445,61.828 60.363,62.158 60.100 C 63.479 59.049,65.591 57.393,66.853 56.421 C 68.089 55.469,70.827 53.324,73.723 51.038 C 74.387 50.514,75.914 49.315,77.118 48.373 C 78.322 47.432,80.155 45.987,81.193 45.163 C 82.231 44.339,83.158 43.664,83.254 43.664 C 83.421 43.664,85.825 45.579,101.647 58.310 C 103.166 59.531,104.702 60.762,105.062 61.045 C 105.422 61.327,106.376 62.099,107.182 62.759 C 107.988 63.420,109.765 64.844,111.130 65.924 C 112.496 67.004,113.652 67.929,113.699 67.981 C 113.746 68.032,115.325 69.308,117.209 70.816 C 120.132 73.156,125.960 77.839,128.596 79.965 C 129.020 80.307,129.942 81.044,130.646 81.603 C 131.350 82.162,132.083 82.750,132.273 82.908 C 132.464 83.067,134.307 84.550,136.370 86.205 L 140.120 89.212 148.656 89.212 C 154.232 89.212,157.192 89.153,157.192 89.041 C 157.192 88.738,157.238 88.777,151.102 83.914 C 149.966 83.014,148.168 81.584,147.108 80.736 C 146.047 79.889,144.974 79.040,144.722 78.851 C 144.301 78.535,142.300 76.950,136.133 72.046 C 134.860 71.034,132.869 69.454,131.708 68.536 C 130.547 67.618,127.966 65.568,125.972 63.980 C 121.506 60.425,121.032 60.050,118.151 57.784 C 116.879 56.784,115.184 55.441,114.384 54.799 C 113.030 53.713,109.982 51.289,104.795 47.173 C 103.617 46.239,102.577 45.413,102.483 45.337 C 101.416 44.484,98.945 42.519,98.545 42.204 C 98.262 41.983,97.222 41.168,96.233 40.393 C 95.244 39.618,94.396 38.938,94.349 38.882 C 94.302 38.825,93.378 38.087,92.295 37.241 C 91.211 36.395,88.900 34.566,87.158 33.177 C 85.415 31.788,83.902 30.651,83.796 30.651 C 83.689 30.651,82.812 31.248,81.846 31.978 M160.265 38.262 C 159.689 38.838,160.196 40.820,160.959 40.968 C 163.985 41.558,166.299 42.405,166.454 42.979 C 166.638 43.658,166.638 84.835,166.454 85.319 C 166.282 85.770,166.020 85.924,165.068 86.134 C 163.900 86.391,160.423 87.322,160.264 87.421 C 160.056 87.549,160.058 89.391,160.267 89.720 C 160.404 89.937,163.223 89.975,181.595 90.007 C 206.052 90.050,203.303 90.302,203.483 87.998 C 203.545 87.206,203.676 85.518,203.774 84.247 C 203.872 82.975,204.026 81.083,204.117 80.041 C 204.207 79.000,204.281 77.671,204.281 77.088 L 204.281 76.027 203.467 76.041 C 201.506 76.072,201.353 76.216,199.270 79.966 C 198.983 80.484,198.567 81.195,198.346 81.546 C 198.126 81.898,197.945 82.224,197.945 82.271 C 197.945 82.318,197.637 82.861,197.260 83.476 C 196.884 84.092,196.575 84.659,196.575 84.737 C 196.575 85.433,196.395 85.445,186.158 85.445 L 176.367 85.445 176.411 75.557 L 176.455 65.668 183.134 65.733 C 186.807 65.769,189.940 65.864,190.096 65.945 C 190.265 66.032,190.601 66.808,190.921 67.849 C 191.219 68.815,191.624 70.060,191.822 70.614 L 192.183 71.622 193.719 71.523 C 194.564 71.468,195.322 71.356,195.403 71.275 C 195.485 71.193,195.531 67.587,195.507 63.260 L 195.462 55.394 193.986 55.397 C 192.239 55.402,192.101 55.487,191.698 56.809 C 190.628 60.319,190.358 60.987,189.945 61.144 C 189.718 61.231,186.570 61.301,182.950 61.301 L 176.367 61.301 176.411 52.012 L 176.455 42.723 185.788 42.723 L 195.120 42.723 196.358 46.490 C 198.024 51.558,197.838 51.326,199.807 50.800 L 200.557 50.599 200.868 49.315 C 201.040 48.609,201.258 47.684,201.354 47.260 C 201.449 46.836,201.640 45.989,201.778 45.377 C 201.916 44.765,202.156 43.686,202.312 42.979 C 202.467 42.273,202.704 41.228,202.838 40.657 C 203.142 39.363,203.146 38.851,202.852 38.450 C 202.592 38.093,160.620 37.908,160.265 38.262 M370.719 42.405 C 358.939 43.173,351.336 47.170,350.163 53.211 C 348.987 59.268,352.873 64.664,360.360 67.371 C 360.830 67.541,361.447 67.779,361.729 67.899 C 362.488 68.222,364.494 68.951,365.668 69.332 C 366.233 69.515,367.697 70.023,368.921 70.463 C 370.146 70.902,371.340 71.322,371.575 71.397 C 376.830 73.071,379.885 76.005,379.875 79.366 C 379.858 84.830,373.256 87.816,363.699 86.683 C 357.984 86.006,358.286 86.193,357.117 82.602 C 354.889 75.759,355.171 76.369,354.228 76.372 C 352.006 76.378,352.111 76.199,351.114 81.678 C 350.779 83.515,350.357 85.742,350.175 86.627 C 349.680 89.042,349.868 89.187,354.281 89.809 C 354.705 89.868,355.437 89.988,355.908 90.075 C 368.183 92.340,381.045 90.194,387.441 84.814 C 392.137 80.862,391.725 73.028,386.604 68.931 C 384.109 66.934,381.058 65.563,373.459 63.025 C 363.706 59.766,360.873 57.603,360.873 53.413 C 360.873 47.611,368.363 44.835,378.550 46.861 C 380.511 47.251,380.257 46.849,382.233 52.691 C 383.200 55.548,383.110 55.450,384.629 55.304 C 386.006 55.173,385.804 55.550,386.999 50.856 C 387.368 49.405,387.486 48.924,388.203 45.941 C 388.725 43.771,388.610 43.654,385.531 43.213 C 381.036 42.569,374.051 42.187,370.719 42.405 M316.695 42.669 C 314.930 42.872,314.630 43.040,314.001 44.178 C 313.714 44.696,312.056 47.701,310.315 50.856 C 308.574 54.011,306.901 57.016,306.596 57.534 C 306.291 58.052,305.713 59.091,305.311 59.842 C 304.909 60.593,304.099 62.057,303.512 63.096 C 302.924 64.134,302.198 65.445,301.898 66.010 C 301.598 66.575,301.280 67.153,301.191 67.295 C 301.025 67.561,299.416 70.440,298.513 72.089 C 298.064 72.909,297.085 74.685,295.587 77.397 C 294.978 78.500,292.951 82.133,292.291 83.305 C 290.962 85.667,290.334 86.109,287.414 86.740 C 283.704 87.541,283.835 87.468,283.957 88.648 C 284.114 90.172,283.237 90.052,294.191 90.054 L 303.935 90.056 304.032 89.669 C 304.471 87.920,303.906 87.435,300.599 86.720 C 298.183 86.197,298.091 86.102,298.696 84.739 C 299.419 83.111,300.140 81.685,303.641 74.970 C 304.713 72.914,303.468 73.122,314.739 73.119 L 324.255 73.116 324.628 73.513 C 324.832 73.731,325.000 73.953,325.000 74.007 C 325.000 74.061,325.375 74.904,325.834 75.880 C 326.292 76.856,326.841 78.039,327.054 78.510 C 327.267 78.981,327.771 80.060,328.173 80.908 C 330.628 86.074,330.627 86.172,328.082 86.731 C 327.376 86.886,326.297 87.144,325.685 87.305 L 324.572 87.597 324.521 88.556 C 324.435 90.185,323.403 90.058,336.434 90.018 L 347.860 89.983 347.860 88.786 L 347.860 87.589 346.747 87.312 C 346.134 87.159,345.056 86.900,344.349 86.736 C 341.461 86.064,340.672 85.429,339.347 82.705 C 337.992 79.920,335.780 75.327,335.019 73.716 C 334.618 72.868,333.674 70.903,332.920 69.349 C 332.167 67.795,331.109 65.599,330.568 64.469 C 329.043 61.279,327.819 58.726,326.340 55.651 C 325.592 54.097,324.389 51.592,323.665 50.086 C 322.941 48.579,321.808 46.267,321.149 44.949 L 319.949 42.551 319.007 42.531 C 318.489 42.520,317.449 42.582,316.695 42.669 M211.471 43.410 C 211.223 43.708,211.355 45.114,211.664 45.487 C 211.884 45.751,212.287 45.874,215.239 46.573 C 217.835 47.188,217.729 47.052,217.867 49.938 C 218.006 52.836,217.974 81.378,217.829 84.062 L 217.723 86.017 217.038 86.220 C 216.661 86.331,215.813 86.544,215.154 86.691 C 210.929 87.639,211.055 87.554,211.507 89.153 L 211.741 89.983 225.776 89.984 C 233.496 89.985,243.158 90.007,247.249 90.033 C 256.187 90.091,255.293 90.388,255.496 87.300 C 255.729 83.741,256.157 78.553,256.263 77.986 C 256.412 77.196,256.041 76.904,255.016 77.004 C 253.362 77.165,253.276 77.233,251.798 79.551 C 251.045 80.733,249.829 82.619,249.097 83.743 L 247.765 85.788 237.841 85.788 L 227.917 85.788 227.824 85.402 C 227.696 84.879,227.799 47.315,227.928 47.186 C 228.049 47.065,229.319 46.744,231.336 46.323 C 232.136 46.157,233.128 45.900,233.539 45.753 L 234.286 45.486 234.176 44.544 C 234.115 44.025,233.981 43.500,233.878 43.376 C 233.577 43.014,211.772 43.047,211.471 43.410 M260.616 44.322 C 260.616 45.707,260.584 45.682,263.050 46.232 C 267.172 47.152,266.843 46.865,266.975 49.663 C 267.114 52.632,267.112 80.107,266.973 83.461 L 266.866 86.014 266.182 86.237 C 265.805 86.359,264.765 86.618,263.870 86.812 C 262.975 87.007,261.877 87.255,261.430 87.365 L 260.616 87.565 260.616 88.527 C 260.616 90.200,259.529 90.060,272.175 90.019 L 283.305 89.983 283.287 88.886 C 283.265 87.598,283.159 87.482,281.727 87.171 C 278.814 86.538,277.293 86.100,277.098 85.838 C 276.876 85.541,276.767 48.310,276.986 47.496 C 277.090 47.106,277.562 46.952,280.822 46.235 C 283.418 45.664,283.450 45.645,283.334 44.667 C 283.135 42.986,284.393 43.151,271.741 43.151 L 260.616 43.151 260.616 44.322 M316.213 55.437 C 316.737 56.543,317.550 58.258,318.020 59.247 C 318.995 61.298,319.911 63.246,320.716 64.983 C 321.022 65.642,321.500 66.667,321.777 67.260 C 322.623 69.067,323.250 68.915,314.734 68.966 C 310.471 68.991,307.232 68.945,307.144 68.856 C 307.005 68.717,308.513 65.624,310.993 60.959 C 311.418 60.158,312.249 58.579,312.838 57.449 C 315.377 52.580,314.974 52.820,316.213 55.437 M167.894 97.402 C 164.012 98.405,161.780 100.504,159.939 104.880 C 159.103 106.868,158.832 112.946,159.481 115.154 C 160.840 119.779,162.940 122.289,166.524 123.574 C 169.748 124.729,176.173 122.989,176.193 120.954 C 176.202 120.086,175.862 119.947,174.707 120.345 C 168.742 122.403,164.932 120.111,163.197 113.422 C 162.484 110.674,163.203 105.219,164.603 102.752 C 166.146 100.035,169.356 98.741,172.027 99.761 L 172.747 100.036 173.116 101.688 C 173.318 102.596,173.536 103.562,173.601 103.835 C 173.750 104.464,174.205 104.777,174.605 104.525 C 175.314 104.077,176.189 98.435,175.622 97.964 C 174.758 97.247,169.870 96.891,167.894 97.402 M348.000 100.312 C 347.505 100.807,347.870 101.497,348.818 101.857 C 349.417 102.085,349.484 103.048,349.484 111.473 C 349.485 120.505,349.422 121.355,348.732 121.643 C 347.999 121.950,347.714 122.339,347.844 122.857 L 347.952 123.288 350.945 123.288 L 353.938 123.288 353.938 122.692 C 353.938 122.172,353.853 122.053,353.275 121.757 C 352.351 121.286,352.397 121.819,352.397 111.729 C 352.397 101.640,352.351 102.173,353.275 101.702 C 353.972 101.346,354.238 100.447,353.707 100.243 C 353.145 100.027,348.225 100.087,348.000 100.312 M183.935 103.597 C 179.431 104.546,176.798 109.527,177.533 115.709 C 178.009 119.719,180.286 122.979,182.902 123.397 C 183.269 123.456,183.611 123.571,183.661 123.653 C 183.987 124.179,188.109 123.683,189.561 122.942 C 195.177 120.077,196.106 109.005,191.069 104.971 C 189.434 103.661,186.404 103.077,183.935 103.597 M218.236 103.615 C 211.764 104.272,210.994 111.657,217.069 114.808 C 220.097 116.379,220.914 117.409,220.651 119.327 C 220.425 120.979,219.360 121.838,217.551 121.825 C 215.747 121.812,214.966 120.871,214.909 118.641 C 214.865 116.928,213.660 117.247,213.387 119.042 C 212.774 123.083,212.786 123.108,215.644 123.537 C 220.587 124.279,223.855 122.033,223.857 117.894 C 223.858 115.334,222.810 113.895,219.727 112.226 C 216.757 110.619,216.196 109.920,216.295 107.955 C 216.395 105.976,217.470 105.160,219.644 105.413 C 220.728 105.540,220.763 105.581,221.140 107.192 C 221.522 108.819,221.611 108.990,222.089 108.990 C 222.585 108.990,222.675 108.798,223.013 107.021 C 223.483 104.543,223.428 104.162,222.560 103.919 C 221.553 103.637,219.466 103.490,218.236 103.615 M312.851 103.612 C 308.839 104.398,306.456 108.153,306.450 113.699 C 306.442 120.306,309.276 123.800,314.640 123.798 C 320.033 123.796,323.177 119.916,323.170 113.271 C 323.162 106.051,319.221 102.363,312.851 103.612 M380.908 103.617 C 373.564 104.292,370.001 114.244,374.785 120.719 C 377.323 124.155,383.035 124.861,386.173 122.126 C 386.870 121.519,386.335 120.531,385.488 120.862 C 382.138 122.170,378.072 120.977,377.036 118.382 C 376.929 118.113,376.686 117.509,376.497 117.038 C 375.998 115.797,375.866 111.601,376.281 110.174 C 377.248 106.848,378.816 105.479,381.660 105.479 C 383.494 105.479,383.688 105.634,384.046 107.375 C 384.354 108.874,384.525 109.247,384.907 109.247 C 385.571 109.247,385.841 108.367,386.069 105.468 L 386.171 104.171 385.080 103.893 C 383.755 103.554,382.498 103.471,380.908 103.617 M276.027 103.868 C 271.770 105.181,269.645 108.472,269.625 113.784 C 269.609 118.217,270.908 121.026,273.757 122.716 C 277.062 124.677,283.722 123.552,283.115 121.135 C 282.992 120.646,283.035 120.646,281.336 121.131 C 275.516 122.793,271.786 118.174,272.915 110.702 C 273.404 107.466,275.494 105.479,278.410 105.479 C 280.177 105.479,280.518 105.713,280.721 107.061 C 281.156 109.940,282.189 110.035,282.642 107.238 C 283.076 104.563,283.096 104.330,282.899 104.209 C 281.923 103.606,277.575 103.390,276.027 103.868 M241.610 103.878 C 238.048 103.968,237.491 104.406,239.600 105.459 L 240.154 105.736 240.154 113.610 L 240.154 121.483 239.426 121.884 C 238.690 122.291,238.434 122.933,238.895 123.217 C 239.237 123.429,244.507 123.370,244.725 123.151 C 245.043 122.833,244.632 122.171,243.891 121.810 L 243.236 121.490 243.190 118.129 C 243.147 115.032,243.167 114.762,243.447 114.695 C 244.182 114.519,244.363 114.764,246.062 118.229 C 247.239 120.630,248.000 121.963,248.521 122.539 L 249.276 123.373 250.975 123.431 C 253.170 123.506,253.944 122.674,252.313 121.993 C 251.399 121.611,250.638 120.536,248.987 117.295 C 247.243 113.871,247.282 113.993,247.839 113.739 C 250.753 112.412,251.663 107.286,249.372 105.103 C 248.166 103.955,246.836 103.745,241.610 103.878 M195.676 104.147 C 195.515 104.571,195.891 105.155,196.484 105.402 C 197.301 105.744,197.276 105.458,197.222 113.955 L 197.175 121.490 196.458 121.823 C 195.739 122.157,195.560 122.427,195.681 122.993 C 195.740 123.270,195.968 123.292,198.258 123.249 L 200.771 123.202 200.771 122.700 C 200.771 122.287,200.648 122.134,200.086 121.842 L 199.401 121.487 199.356 115.624 C 199.329 112.180,199.375 109.760,199.466 109.760 C 199.552 109.760,200.667 111.321,201.944 113.228 C 203.220 115.135,204.943 117.704,205.771 118.938 C 206.600 120.171,207.584 121.650,207.958 122.224 C 208.679 123.329,208.965 123.504,209.720 123.303 L 210.188 123.178 210.274 114.514 C 210.321 109.749,210.411 105.799,210.474 105.735 C 210.538 105.672,210.840 105.493,211.147 105.336 C 212.932 104.424,212.199 103.917,209.179 103.977 L 206.764 104.024 206.711 104.478 C 206.655 104.962,207.179 105.479,207.725 105.479 C 208.223 105.479,208.275 105.961,208.352 111.275 C 208.424 116.237,208.413 116.468,208.114 116.410 C 207.924 116.374,206.191 113.941,203.680 110.187 L 199.558 104.024 197.659 103.976 C 196.237 103.940,195.739 103.983,195.676 104.147 M223.738 104.059 C 223.571 104.226,223.786 108.160,224.000 108.861 C 224.345 109.989,224.875 109.534,225.562 107.521 L 226.113 105.908 227.654 105.908 L 229.195 105.908 229.240 113.670 L 229.284 121.432 228.421 121.797 C 227.541 122.169,227.147 122.764,227.529 123.146 C 227.727 123.343,233.744 123.407,234.055 123.215 C 234.592 122.883,234.251 122.258,233.305 121.839 L 232.363 121.423 232.363 113.711 L 232.363 106.000 232.752 105.902 C 232.966 105.848,233.678 105.828,234.336 105.856 L 235.531 105.908 235.878 107.488 C 236.069 108.357,236.312 109.154,236.417 109.260 C 236.697 109.540,237.315 109.284,237.408 108.850 C 237.664 107.650,237.909 105.781,237.918 104.966 L 237.928 104.024 230.895 103.979 C 227.027 103.955,223.806 103.990,223.738 104.059 M252.109 104.214 C 251.954 104.620,252.239 105.004,252.966 105.365 C 253.312 105.538,253.600 105.807,253.606 105.964 C 253.611 106.122,253.644 108.831,253.677 111.986 C 253.753 119.082,253.992 120.325,255.624 122.131 C 257.677 124.405,262.710 124.392,264.773 122.109 C 266.466 120.236,266.630 119.404,266.758 112.043 C 266.818 108.637,266.918 105.799,266.981 105.736 C 267.044 105.672,267.347 105.493,267.653 105.336 C 269.459 104.414,268.710 103.918,265.600 103.977 L 263.099 104.024 263.045 104.499 C 262.997 104.918,263.083 105.016,263.772 105.321 L 264.555 105.667 264.555 111.438 C 264.555 120.283,264.056 121.575,260.645 121.575 C 257.134 121.575,256.765 120.671,256.764 112.074 L 256.764 105.740 257.449 105.384 C 258.011 105.092,258.134 104.939,258.134 104.526 L 258.134 104.024 255.176 103.977 C 252.552 103.936,252.206 103.962,252.109 104.214 M283.618 104.209 C 283.508 104.496,283.846 108.726,284.015 109.164 C 284.301 109.910,285.428 108.735,285.441 107.677 C 285.444 107.520,285.597 107.038,285.782 106.607 L 286.118 105.822 287.460 105.822 C 289.366 105.822,289.212 105.119,289.212 113.828 L 289.212 121.423 288.271 121.839 C 287.498 122.181,287.329 122.331,287.329 122.676 C 287.329 123.296,287.408 123.311,290.765 123.325 C 293.995 123.339,294.251 123.284,294.150 122.597 C 294.091 122.198,294.029 122.152,292.935 121.684 L 292.291 121.408 292.336 113.658 L 292.380 105.908 293.914 105.908 L 295.448 105.908 295.594 106.507 C 295.674 106.836,295.821 107.530,295.919 108.048 C 296.180 109.423,297.119 109.956,297.331 108.850 C 297.612 107.391,297.804 105.928,297.829 105.051 L 297.860 104.024 290.792 103.979 C 284.441 103.939,283.713 103.962,283.618 104.209 M298.744 104.053 C 298.334 104.463,298.721 105.164,299.486 105.396 C 300.171 105.603,300.166 105.547,300.169 113.629 C 300.171 122.076,300.218 121.680,299.187 121.995 C 298.794 122.114,298.508 122.781,298.710 123.107 C 298.863 123.354,304.562 123.354,304.715 123.107 C 304.943 122.738,304.616 122.165,303.988 121.832 C 303.111 121.368,303.126 121.501,303.102 113.592 C 303.079 105.787,303.085 105.726,303.833 105.413 C 304.539 105.118,304.849 104.722,304.712 104.289 C 304.599 103.936,299.080 103.717,298.744 104.053 M324.592 104.205 C 324.434 104.615,324.721 105.009,325.457 105.395 L 326.113 105.739 326.113 113.614 L 326.113 121.490 325.378 121.831 C 324.637 122.175,324.269 122.796,324.606 123.134 C 324.700 123.227,325.829 123.277,327.239 123.250 L 329.709 123.202 329.709 122.700 C 329.709 122.287,329.587 122.134,329.024 121.842 L 328.339 121.487 328.294 115.624 C 328.266 112.007,328.311 109.760,328.411 109.760 C 328.501 109.760,329.022 110.434,329.570 111.258 C 330.117 112.081,330.624 112.833,330.696 112.927 C 330.768 113.022,331.493 114.101,332.308 115.325 C 338.102 124.033,337.666 123.484,338.656 123.333 L 339.212 123.249 339.215 114.664 C 339.218 105.549,339.196 105.790,340.071 105.343 C 341.837 104.441,341.153 103.938,338.159 103.938 C 335.338 103.938,334.707 104.431,336.404 105.308 C 336.677 105.449,336.957 105.642,337.026 105.736 C 337.262 106.057,337.183 116.475,336.946 116.396 C 336.830 116.358,334.884 113.558,332.622 110.175 L 328.509 104.024 326.604 103.976 C 324.978 103.935,324.683 103.968,324.592 104.205 M355.361 104.218 C 355.211 104.611,355.491 105.001,356.174 105.349 C 357.005 105.773,356.986 105.601,356.992 112.842 C 356.999 121.208,356.982 121.374,356.079 121.843 C 354.826 122.492,355.067 123.179,356.585 123.288 C 358.498 123.425,360.407 123.291,360.514 123.012 C 360.660 122.631,360.313 121.918,359.979 121.912 C 359.062 121.896,359.063 121.903,359.056 115.672 C 359.049 110.089,359.095 109.387,359.429 109.933 C 359.515 110.073,361.574 113.155,364.005 116.781 C 368.597 123.629,368.625 123.661,369.575 123.300 L 370.034 123.125 370.034 114.573 C 370.034 105.660,370.045 105.479,370.557 105.479 C 371.123 105.479,371.744 104.765,371.567 104.319 C 371.414 103.935,371.372 103.930,368.968 103.976 L 366.524 104.024 366.471 104.486 C 366.426 104.876,366.526 105.003,367.110 105.301 C 367.515 105.508,367.842 105.814,367.896 106.038 C 368.066 106.733,367.905 116.321,367.723 116.376 C 367.628 116.405,365.748 113.728,363.544 110.427 C 361.340 107.126,359.428 104.315,359.294 104.182 C 358.915 103.803,355.508 103.835,355.361 104.218 M186.942 105.378 C 188.530 105.719,189.782 106.868,190.365 108.521 C 190.456 108.779,190.627 109.259,190.745 109.589 C 191.053 110.449,191.186 115.439,190.939 116.856 C 190.331 120.349,188.828 121.933,186.114 121.941 C 182.880 121.950,181.302 120.030,180.708 115.362 C 180.021 109.966,181.507 106.038,184.490 105.370 C 185.642 105.112,185.702 105.112,186.942 105.378 M315.679 105.325 C 318.498 105.846,319.813 108.141,319.980 112.832 C 320.207 119.205,318.715 121.918,314.983 121.918 C 311.924 121.918,310.197 119.871,309.659 115.606 C 308.961 110.076,310.387 106.130,313.356 105.374 C 314.391 105.110,314.506 105.108,315.679 105.325 M245.786 105.889 C 246.635 106.243,247.028 106.763,247.352 107.962 C 248.150 110.910,246.387 113.263,243.751 112.768 L 243.151 112.656 243.151 109.359 C 243.151 107.023,243.211 106.002,243.356 105.856 C 243.635 105.577,245.087 105.596,245.786 105.889 M389.240 119.981 C 388.037 120.574,387.984 122.806,389.158 123.431 C 390.739 124.273,392.233 122.421,391.350 120.714 C 390.888 119.821,390.112 119.552,389.240 119.981 M10.613 136.822 C 10.510 137.015,10.449 137.458,10.478 137.807 L 10.531 138.442 200.342 138.442 L 390.154 138.442 390.209 137.677 C 390.250 137.102,390.189 136.859,389.962 136.693 C 389.717 136.514,354.353 136.473,200.230 136.473 L 10.800 136.473 10.613 136.822 " stroke="none" fill="#0e3a71" fill-rule="evenodd"></path><path id="path1" d="M82.250 11.647 C 81.041 12.591,79.286 13.958,78.350 14.686 C 77.415 15.415,75.822 16.665,74.811 17.466 C 73.799 18.266,72.380 19.384,71.656 19.949 C 70.932 20.514,70.012 21.246,69.610 21.575 C 69.209 21.905,68.476 22.483,67.982 22.860 C 67.094 23.536,65.220 24.999,62.269 27.319 C 61.435 27.974,60.344 28.818,59.844 29.195 C 59.344 29.572,58.116 30.535,57.115 31.336 C 56.115 32.136,54.868 33.117,54.346 33.515 C 53.520 34.145,51.639 35.621,50.857 36.253 C 50.329 36.679,45.954 40.109,45.377 40.550 C 45.047 40.801,43.506 42.012,41.952 43.241 C 39.121 45.479,37.976 46.378,34.824 48.835 C 32.906 50.329,25.526 56.122,23.202 57.956 C 22.354 58.625,20.929 59.746,20.034 60.447 C 19.140 61.148,18.369 61.765,18.322 61.817 C 18.275 61.870,17.350 62.581,16.267 63.397 C 13.084 65.798,10.017 68.318,10.017 68.534 C 10.017 68.921,10.934 68.973,18.113 68.990 C 26.578 69.010,25.689 69.192,28.609 66.836 C 29.754 65.911,31.010 64.908,31.399 64.607 C 34.721 62.037,42.351 56.020,44.264 54.463 C 44.735 54.080,46.353 52.802,47.860 51.624 C 49.366 50.446,51.023 49.142,51.541 48.726 C 53.702 46.991,55.480 45.588,56.861 44.531 C 57.668 43.913,59.681 42.329,61.335 41.010 C 62.988 39.692,65.707 37.534,67.377 36.216 C 69.046 34.897,70.896 33.433,71.487 32.962 C 72.078 32.491,73.010 31.759,73.557 31.336 C 74.718 30.437,78.231 27.661,80.384 25.942 C 82.605 24.168,83.589 23.459,83.831 23.459 C 84.016 23.459,85.255 24.423,88.704 27.255 C 89.125 27.600,90.278 28.528,91.267 29.317 C 92.256 30.106,93.566 31.160,94.178 31.659 C 94.790 32.159,96.023 33.154,96.918 33.870 C 97.813 34.586,99.045 35.590,99.658 36.100 C 101.070 37.277,101.178 37.365,102.826 38.672 C 103.579 39.269,104.465 39.977,104.795 40.245 C 105.124 40.513,106.550 41.668,107.962 42.813 C 109.375 43.958,111.447 45.639,112.567 46.549 C 113.687 47.458,114.959 48.463,115.393 48.782 C 115.826 49.101,116.682 49.801,117.295 50.338 C 117.907 50.875,119.063 51.823,119.863 52.445 C 120.664 53.068,122.667 54.670,124.315 56.006 C 133.802 63.695,135.337 64.905,135.528 64.841 C 135.641 64.804,135.718 62.488,135.747 58.263 L 135.792 51.743 133.863 50.127 C 132.803 49.238,131.203 47.916,130.308 47.189 C 126.993 44.495,125.588 43.335,125.171 42.947 C 124.936 42.727,123.973 41.936,123.031 41.188 C 122.089 40.440,121.164 39.694,120.976 39.530 C 120.344 38.980,117.013 36.229,115.407 34.932 C 114.532 34.225,112.797 32.800,111.551 31.764 C 109.185 29.797,105.697 26.920,104.143 25.654 C 103.644 25.247,102.905 24.645,102.502 24.315 C 102.099 23.985,101.228 23.278,100.566 22.743 C 99.905 22.209,99.257 21.668,99.125 21.542 C 98.994 21.416,98.543 21.045,98.123 20.717 C 97.702 20.388,97.163 19.939,96.925 19.719 C 96.686 19.498,95.528 18.541,94.350 17.592 C 93.172 16.642,91.934 15.628,91.597 15.339 C 91.261 15.049,90.461 14.388,89.820 13.870 C 89.178 13.352,88.567 12.849,88.462 12.753 C 87.254 11.648,84.935 9.932,84.651 9.932 C 84.539 9.932,83.458 10.704,82.250 11.647 M260.485 44.007 C 260.485 44.336,260.520 44.471,260.563 44.307 C 260.606 44.142,260.606 43.872,260.563 43.707 C 260.520 43.542,260.485 43.677,260.485 44.007 M72.808 61.678 C 72.464 62.023,72.522 69.758,72.872 70.108 C 73.196 70.432,80.930 70.514,81.518 70.199 C 81.925 69.982,82.041 62.076,81.644 61.678 C 81.352 61.386,73.100 61.386,72.808 61.678 M85.622 61.804 C 85.515 62.004,85.445 63.662,85.445 65.995 L 85.445 69.855 85.860 70.127 C 86.457 70.518,94.443 70.434,94.696 70.034 C 94.872 69.755,94.930 62.188,94.759 61.743 C 94.582 61.283,85.871 61.340,85.622 61.804 M73.374 73.757 C 73.092 73.798,72.804 73.922,72.734 74.031 C 72.509 74.385,72.578 82.098,72.808 82.329 C 73.025 82.546,81.035 82.639,81.578 82.430 C 82.039 82.254,81.981 74.055,81.518 73.807 C 81.196 73.635,74.486 73.593,73.374 73.757 M85.615 74.061 C 85.361 74.730,85.392 82.070,85.651 82.329 C 85.800 82.478,87.065 82.534,90.271 82.534 L 94.685 82.534 94.784 82.143 C 94.933 81.548,94.798 74.021,94.635 73.858 C 94.557 73.780,92.534 73.693,90.139 73.665 L 85.785 73.614 85.615 74.061 M124.710 84.118 C 124.634 84.236,124.558 90.025,124.541 96.983 C 124.521 105.069,124.448 109.695,124.340 109.804 C 124.228 109.916,123.394 109.593,121.882 108.852 C 120.623 108.236,118.980 107.492,118.230 107.199 C 117.480 106.907,116.712 106.602,116.524 106.522 C 115.609 106.132,113.606 105.450,111.986 104.976 C 110.997 104.687,109.957 104.378,109.675 104.291 C 109.164 104.134,105.363 103.259,104.709 103.149 C 96.665 101.793,85.271 101.270,80.051 102.019 C 75.848 102.622,72.595 103.272,70.034 104.022 C 69.516 104.173,68.707 104.403,68.236 104.533 C 66.626 104.976,63.936 105.919,62.586 106.513 C 58.511 108.304,57.062 108.970,55.822 109.621 C 49.783 112.789,46.692 115.388,51.310 113.415 C 51.607 113.289,51.926 113.185,52.020 113.185 C 52.114 113.185,53.104 112.881,54.220 112.509 C 59.438 110.773,64.947 109.661,71.661 108.990 C 78.979 108.259,91.162 109.164,95.719 110.777 C 95.955 110.860,97.380 111.253,98.887 111.649 C 101.887 112.438,104.253 113.131,107.534 114.182 C 108.711 114.560,110.214 115.038,110.873 115.246 C 111.533 115.453,112.315 115.729,112.611 115.859 C 112.908 115.989,113.212 116.096,113.286 116.096 C 113.572 116.096,122.087 119.277,123.373 119.865 C 123.562 119.951,124.448 120.324,125.342 120.693 C 127.509 121.589,131.725 123.562,135.302 125.355 C 135.497 125.453,135.618 125.415,135.687 125.235 C 135.936 124.587,135.794 91.127,135.541 90.874 C 135.406 90.739,133.576 89.488,131.475 88.096 C 129.373 86.703,127.307 85.333,126.884 85.051 C 125.206 83.936,124.910 83.809,124.710 84.118 M251.241 90.187 C 251.406 90.230,251.676 90.230,251.841 90.187 C 252.006 90.143,251.871 90.108,251.541 90.108 C 251.211 90.108,251.077 90.143,251.241 90.187 M261.432 90.190 C 261.645 90.231,261.953 90.229,262.117 90.186 C 262.280 90.143,262.106 90.110,261.729 90.112 C 261.353 90.114,261.219 90.149,261.432 90.190 M281.723 90.191 C 281.984 90.231,282.369 90.230,282.579 90.189 C 282.790 90.148,282.577 90.116,282.106 90.117 C 281.635 90.119,281.463 90.152,281.723 90.191 M284.977 90.191 C 285.237 90.231,285.622 90.230,285.833 90.189 C 286.043 90.148,285.830 90.116,285.360 90.117 C 284.889 90.119,284.716 90.152,284.977 90.191 M302.699 90.190 C 302.912 90.231,303.220 90.229,303.384 90.186 C 303.548 90.143,303.373 90.110,302.997 90.112 C 302.620 90.114,302.486 90.149,302.699 90.190 M325.557 90.187 C 325.721 90.230,325.991 90.230,326.156 90.187 C 326.321 90.143,326.186 90.108,325.856 90.108 C 325.527 90.108,325.392 90.143,325.557 90.187 M346.278 90.191 C 346.538 90.231,346.924 90.230,347.134 90.189 C 347.345 90.148,347.132 90.116,346.661 90.117 C 346.190 90.119,346.018 90.152,346.278 90.191 M366.445 104.016 C 366.332 104.152,366.275 104.403,366.319 104.572 C 366.381 104.811,366.403 104.792,366.418 104.489 C 366.430 104.256,366.593 104.036,366.824 103.944 C 367.084 103.839,367.119 103.785,366.930 103.778 C 366.777 103.772,366.559 103.879,366.445 104.016 M358.947 114.983 C 358.949 115.360,358.984 115.494,359.025 115.281 C 359.066 115.068,359.065 114.759,359.022 114.596 C 358.979 114.432,358.945 114.606,358.947 114.983 M238.642 122.203 C 238.486 122.359,238.497 123.077,238.656 123.176 C 238.726 123.219,238.784 122.993,238.784 122.672 C 238.784 122.351,238.778 122.089,238.770 122.089 C 238.762 122.089,238.704 122.140,238.642 122.203 M298.784 123.339 C 298.864 123.419,299.189 123.457,299.507 123.424 C 300.071 123.366,300.068 123.363,299.362 123.279 C 298.965 123.232,298.704 123.259,298.784 123.339 M324.641 123.340 C 324.717 123.416,325.195 123.454,325.703 123.423 L 326.627 123.368 325.564 123.285 C 324.980 123.239,324.565 123.264,324.641 123.340 M232.834 123.409 C 233.046 123.449,233.393 123.449,233.604 123.409 C 233.816 123.368,233.643 123.334,233.219 123.334 C 232.795 123.334,232.622 123.368,232.834 123.409 M243.452 123.409 C 243.665 123.450,243.974 123.448,244.137 123.405 C 244.301 123.362,244.127 123.329,243.750 123.331 C 243.373 123.333,243.239 123.368,243.452 123.409 M288.057 123.410 C 288.315 123.450,288.739 123.450,288.998 123.410 C 289.257 123.371,289.045 123.339,288.527 123.339 C 288.009 123.339,287.798 123.371,288.057 123.410 M292.939 123.409 C 293.152 123.450,293.460 123.448,293.624 123.405 C 293.787 123.362,293.613 123.329,293.236 123.331 C 292.860 123.333,292.726 123.368,292.939 123.409 M328.555 123.409 C 328.768 123.450,329.076 123.448,329.240 123.405 C 329.404 123.362,329.229 123.329,328.853 123.331 C 328.476 123.333,328.342 123.368,328.555 123.409 M355.952 123.409 C 356.165 123.450,356.474 123.448,356.637 123.405 C 356.801 123.362,356.627 123.329,356.250 123.331 C 355.873 123.333,355.739 123.368,355.952 123.409 M88.106 145.360 C 87.181 145.499,87.181 145.498,87.164 152.848 C 87.147 160.446,87.008 159.932,89.088 159.932 C 90.102 159.932,90.760 159.856,90.890 159.726 C 91.194 159.422,91.186 145.565,90.882 145.471 C 90.423 145.330,88.751 145.263,88.106 145.360 M95.212 145.349 C 94.706 145.446,94.601 145.550,94.492 146.062 C 94.345 146.755,94.324 156.254,94.465 158.341 L 94.560 159.747 95.165 159.946 C 95.852 160.173,97.692 160.041,98.056 159.739 C 98.458 159.406,98.392 145.601,97.988 145.484 C 97.409 145.316,95.798 145.238,95.212 145.349 M163.784 145.323 C 162.607 145.553,162.671 145.483,162.671 146.544 C 162.671 147.878,162.771 147.945,164.754 147.945 C 166.232 147.945,166.447 147.907,166.604 147.614 C 166.850 147.153,166.826 145.796,166.567 145.592 C 166.333 145.408,164.336 145.215,163.784 145.323 M280.651 145.327 C 279.698 145.451,279.623 145.597,279.623 147.334 C 279.623 149.205,279.440 149.603,278.708 149.325 C 277.876 149.009,275.315 149.100,274.465 149.476 C 272.280 150.443,271.316 152.074,271.322 154.795 C 271.332 159.075,274.189 161.240,277.998 159.851 C 279.233 159.401,279.303 159.393,279.729 159.672 C 280.293 160.041,283.188 160.083,283.415 159.726 C 283.592 159.448,283.609 145.596,283.433 145.492 C 283.211 145.360,281.277 145.245,280.651 145.327 M301.194 145.816 C 301.014 146.291,300.960 158.720,301.136 159.377 C 301.326 160.086,304.254 160.326,304.733 159.671 C 305.052 159.234,305.078 145.900,304.760 145.582 C 304.304 145.126,301.384 145.318,301.194 145.816 M308.505 145.491 C 308.306 145.689,308.381 147.525,308.596 147.740 C 308.726 147.869,309.376 147.945,310.360 147.945 C 312.192 147.945,312.329 147.856,312.329 146.661 C 312.329 146.181,312.236 145.695,312.123 145.582 C 311.904 145.363,308.713 145.283,308.505 145.491 M113.784 145.795 C 110.516 146.243,108.562 147.865,108.562 150.131 C 108.562 152.682,110.516 154.112,114.812 154.705 C 116.532 154.942,117.591 155.643,117.397 156.416 C 117.036 157.852,113.174 157.806,110.048 156.330 C 108.654 155.671,108.529 155.737,108.424 157.183 C 108.287 159.083,108.539 159.365,110.809 159.840 C 116.891 161.114,121.566 159.297,121.638 155.632 C 121.673 153.875,121.189 153.109,119.435 152.145 C 118.870 151.834,116.569 151.255,114.640 150.937 C 112.376 150.565,112.290 148.932,114.508 148.435 C 115.738 148.160,117.564 148.455,119.435 149.231 C 120.188 149.543,120.861 149.746,120.929 149.681 C 121.134 149.487,121.121 146.939,120.914 146.689 C 120.595 146.305,116.583 145.475,115.497 145.569 C 115.402 145.578,114.632 145.679,113.784 145.795 M58.507 146.002 C 58.363 146.146,58.351 159.286,58.494 159.661 C 58.627 160.005,61.958 160.062,62.295 159.726 C 62.436 159.585,62.500 158.737,62.500 157.021 C 62.500 153.893,62.275 154.110,65.520 154.110 C 68.981 154.110,69.007 154.099,69.007 152.593 L 69.007 151.410 67.765 151.322 C 67.083 151.273,65.677 151.220,64.643 151.204 C 62.540 151.170,62.505 151.151,62.505 150.000 C 62.505 148.703,62.427 148.733,66.130 148.633 L 69.435 148.545 69.435 147.260 L 69.435 145.976 64.029 145.931 C 61.056 145.906,58.571 145.938,58.507 146.002 M204.495 146.085 C 204.246 146.336,204.182 159.339,204.427 159.726 C 204.627 160.042,207.747 160.081,208.119 159.772 C 208.339 159.590,208.390 159.159,208.390 157.502 C 208.390 155.143,208.508 154.795,209.305 154.795 C 210.066 154.795,210.368 155.099,213.571 159.103 L 214.210 159.901 215.624 160.016 C 217.121 160.137,218.682 159.963,218.783 159.663 C 218.848 159.465,217.664 157.932,216.031 156.102 C 214.276 154.134,214.299 154.300,215.616 153.040 C 217.961 150.797,217.662 147.882,214.951 146.547 L 213.793 145.976 209.251 145.922 C 205.760 145.881,204.659 145.919,204.495 146.085 M211.892 148.872 C 214.077 149.785,212.614 152.226,209.882 152.226 C 208.481 152.226,208.390 152.117,208.390 150.428 C 208.390 149.578,208.470 148.962,208.596 148.836 C 208.883 148.548,211.178 148.574,211.892 148.872 M128.510 149.141 C 122.490 149.817,121.338 157.555,126.940 159.683 C 128.726 160.362,131.378 160.463,133.618 159.938 C 135.525 159.492,135.728 159.274,135.560 157.855 C 135.430 156.754,135.295 156.605,134.658 156.862 C 134.385 156.973,134.007 157.125,133.818 157.201 C 131.424 158.163,128.103 157.655,127.566 156.244 C 127.219 155.330,127.267 155.318,131.652 155.268 L 135.702 155.223 135.754 154.121 C 135.923 150.517,133.161 148.619,128.510 149.141 M224.829 149.133 C 220.835 149.831,218.721 153.714,220.427 157.216 C 221.593 159.610,225.612 160.838,229.626 160.028 C 231.959 159.557,232.444 158.904,231.944 156.909 L 231.848 156.526 230.950 156.917 C 228.133 158.141,225.365 157.951,224.252 156.458 C 223.526 155.484,223.791 155.404,228.101 155.308 C 232.444 155.211,232.366 155.233,232.355 154.142 C 232.320 150.393,229.262 148.357,224.829 149.133 M322.319 149.153 C 321.927 149.229,321.277 149.451,320.874 149.646 C 319.951 150.092,319.573 150.093,319.433 149.652 C 319.330 149.327,319.204 149.307,317.581 149.352 L 315.839 149.401 315.839 154.623 L 315.839 159.846 317.440 159.895 C 319.650 159.964,319.521 160.197,319.521 156.156 C 319.521 152.406,319.516 152.424,320.645 152.051 C 322.917 151.301,323.533 152.137,323.589 156.049 C 323.651 160.314,323.461 159.932,325.514 159.932 C 327.607 159.932,327.438 160.362,327.366 155.207 C 327.308 151.055,327.256 150.782,326.372 150.039 C 325.438 149.254,323.723 148.879,322.319 149.153 M173.190 149.460 C 170.449 150.354,169.337 151.836,169.327 154.610 C 169.314 158.235,171.793 160.274,176.215 160.274 C 179.106 160.274,180.308 159.566,180.308 157.862 C 180.308 156.445,180.022 156.240,178.990 156.918 C 176.026 158.867,172.475 157.017,173.299 153.953 C 173.919 151.643,175.964 150.960,178.509 152.212 C 180.115 153.003,180.300 152.861,180.306 150.840 C 180.311 149.336,176.085 148.517,173.190 149.460 M185.259 149.537 C 182.950 150.507,181.814 152.205,181.812 154.686 C 181.810 158.378,184.255 160.194,189.212 160.184 C 193.107 160.176,194.105 159.688,193.972 157.856 C 193.878 156.558,193.956 156.587,192.165 157.187 C 189.195 158.182,186.338 157.632,185.907 155.983 C 185.750 155.385,186.163 155.316,190.168 155.269 L 194.092 155.223 194.143 154.093 C 194.231 152.105,193.266 150.347,191.651 149.551 C 190.567 149.016,186.520 149.008,185.259 149.537 M240.100 149.607 L 239.019 150.039 238.634 149.677 C 238.213 149.282,235.644 149.140,235.103 149.482 C 234.698 149.738,234.623 159.256,235.022 159.655 C 235.378 160.011,238.210 160.058,238.496 159.712 C 238.607 159.579,238.699 158.145,238.731 156.038 C 238.790 152.204,238.789 152.208,240.009 151.977 C 242.129 151.575,242.466 152.132,242.466 156.051 C 242.466 160.071,242.396 159.932,244.396 159.932 C 246.528 159.932,246.404 160.172,246.404 156.049 L 246.404 152.577 246.961 152.285 C 247.811 151.838,249.212 151.876,249.695 152.359 C 250.071 152.734,250.088 152.876,250.142 156.125 C 250.176 158.130,250.271 159.589,250.377 159.716 C 250.664 160.062,253.870 160.013,254.006 159.661 C 254.179 159.209,254.122 153.023,253.935 152.039 C 253.401 149.221,250.572 148.250,247.484 149.827 C 245.888 150.642,246.007 150.631,245.230 150.035 C 243.865 148.988,242.035 148.836,240.100 149.607 M259.675 149.636 C 256.612 151.055,255.559 155.106,257.520 157.927 C 259.542 160.836,265.766 161.121,268.111 158.411 C 269.907 156.337,269.896 152.905,268.087 150.903 C 266.460 149.102,262.208 148.462,259.675 149.636 M289.285 149.635 C 286.088 151.135,285.106 155.295,287.274 158.155 C 288.850 160.235,295.043 160.971,297.936 159.423 C 298.239 159.260,298.288 159.070,298.288 158.037 C 298.288 156.575,298.202 156.525,296.742 157.130 C 293.995 158.268,290.240 157.559,290.240 155.903 C 290.240 155.336,290.436 155.308,294.445 155.308 L 298.109 155.308 298.401 154.862 C 299.198 153.646,297.853 150.539,296.153 149.666 C 294.774 148.958,290.767 148.940,289.285 149.635 M332.923 149.578 C 328.981 151.556,328.970 157.843,332.906 159.440 C 333.973 159.873,336.198 159.864,337.320 159.421 L 338.180 159.082 338.290 159.522 C 338.653 160.966,335.884 161.743,332.887 161.036 C 331.357 160.676,331.311 160.712,331.371 162.198 L 331.421 163.442 332.192 163.642 C 334.894 164.344,339.392 163.777,340.741 162.565 C 342.167 161.283,342.196 161.138,342.261 155.082 C 342.329 148.691,342.594 149.277,339.648 149.298 C 338.420 149.306,336.605 149.272,335.616 149.221 C 333.922 149.134,333.767 149.154,332.923 149.578 M72.217 149.500 C 71.848 149.715,71.768 156.274,72.118 157.663 C 72.378 158.695,73.500 159.853,74.428 160.048 C 75.381 160.248,77.279 160.219,77.757 159.998 C 79.446 159.216,79.429 159.219,79.943 159.600 C 80.472 159.990,83.230 160.161,83.567 159.823 C 83.675 159.715,83.721 157.769,83.693 154.527 L 83.647 149.401 82.046 149.351 C 79.832 149.283,79.966 149.037,79.966 153.185 L 79.966 156.671 79.288 157.017 C 78.266 157.538,76.895 157.494,76.357 156.922 C 75.954 156.494,75.939 156.381,75.856 153.181 C 75.793 150.738,75.710 149.807,75.536 149.598 C 75.263 149.270,72.740 149.196,72.217 149.500 M138.533 149.646 C 138.424 149.851,138.356 151.748,138.356 154.623 C 138.356 160.293,138.221 159.932,140.336 159.932 C 142.370 159.932,142.295 160.083,142.295 156.009 L 142.295 152.965 142.957 152.767 C 143.321 152.658,144.314 152.568,145.164 152.568 C 146.416 152.568,146.730 152.517,146.814 152.298 C 146.972 151.884,146.933 149.775,146.761 149.504 C 146.506 149.100,144.687 149.365,143.512 149.977 C 142.482 150.512,142.295 150.513,142.295 149.977 C 142.295 149.251,138.905 148.952,138.533 149.646 M147.888 149.429 C 147.616 149.702,148.126 151.155,149.740 154.699 C 149.871 154.987,150.336 156.102,150.774 157.177 C 151.990 160.162,151.726 159.950,154.161 159.894 L 156.221 159.846 156.504 159.332 C 156.659 159.050,157.310 157.586,157.950 156.079 C 158.590 154.572,159.268 152.992,159.456 152.568 C 160.906 149.312,160.907 149.315,158.653 149.315 C 156.883 149.315,156.754 149.387,156.349 150.599 C 156.223 150.976,155.792 152.132,155.393 153.168 C 154.993 154.204,154.618 155.192,154.559 155.364 C 154.290 156.154,153.873 155.515,152.793 152.654 C 152.188 151.053,151.567 149.647,151.413 149.529 C 151.118 149.304,148.099 149.218,147.888 149.429 M163.048 149.521 C 162.831 149.738,162.737 159.114,162.946 159.661 C 163.078 160.003,166.070 160.060,166.404 159.726 C 166.554 159.576,166.610 158.204,166.610 154.623 C 166.610 148.916,166.751 149.315,164.726 149.315 C 163.809 149.315,163.176 149.393,163.048 149.521 M308.474 149.700 C 308.422 149.912,308.402 152.282,308.428 154.966 L 308.476 159.846 310.274 159.846 L 312.072 159.846 312.184 158.818 C 312.344 157.340,312.150 149.786,311.945 149.529 C 311.598 149.096,308.585 149.245,308.474 149.700 M131.154 151.689 C 132.581 152.719,131.969 153.266,129.452 153.211 L 127.483 153.168 127.518 152.674 C 127.608 151.419,129.914 150.794,131.154 151.689 M189.193 151.468 C 189.638 151.646,189.936 151.906,190.072 152.235 C 190.455 153.158,190.280 153.253,188.204 153.253 C 186.014 153.253,185.792 153.198,185.916 152.686 C 186.206 151.486,187.778 150.901,189.193 151.468 M227.658 151.613 C 228.101 151.904,228.357 152.566,228.192 152.996 C 227.972 153.568,223.973 153.317,223.973 152.731 C 223.973 151.524,226.398 150.788,227.658 151.613 M293.337 151.401 C 295.323 152.093,294.915 153.154,292.637 153.218 C 290.250 153.284,290.036 153.227,290.260 152.584 C 290.654 151.453,292.000 150.935,293.337 151.401 M264.203 151.793 C 265.644 152.538,265.860 156.153,264.531 157.271 C 262.164 159.262,259.420 155.756,260.969 152.721 C 261.519 151.641,263.057 151.200,264.203 151.793 M279.312 151.998 C 279.583 152.243,279.623 152.574,279.623 154.560 L 279.623 156.841 279.160 157.145 C 276.688 158.765,274.171 155.753,275.611 152.898 C 276.202 151.728,278.418 151.189,279.312 151.998 M338.025 151.890 C 338.456 152.120,338.530 156.033,338.113 156.603 C 337.723 157.136,335.294 157.088,334.706 156.536 C 333.333 155.247,333.982 152.419,335.788 151.824 C 336.260 151.668,337.690 151.710,338.025 151.890 " stroke="none" fill="#ca6321" fill-rule="evenodd"></path><path id="path2" d="M0.000 85.616 L 0.000 171.233 200.000 171.233 L 400.000 171.233 400.000 85.616 L 400.000 0.000 200.000 0.000 L 0.000 0.000 0.000 85.616 M85.279 10.221 C 85.688 10.500,88.074 12.398,88.462 12.753 C 88.567 12.849,89.178 13.352,89.820 13.870 C 90.461 14.388,91.261 15.049,91.597 15.339 C 91.934 15.628,93.172 16.642,94.350 17.592 C 95.528 18.541,96.686 19.498,96.925 19.719 C 97.163 19.939,97.702 20.388,98.123 20.717 C 98.543 21.045,98.994 21.416,99.125 21.542 C 99.257 21.668,99.905 22.209,100.566 22.743 C 101.228 23.278,102.099 23.985,102.502 24.315 C 102.905 24.645,103.644 25.247,104.143 25.654 C 105.697 26.920,109.185 29.797,111.551 31.764 C 112.797 32.800,114.532 34.225,115.407 34.932 C 117.013 36.229,120.344 38.980,120.976 39.530 C 121.164 39.694,122.089 40.440,123.031 41.188 C 123.973 41.936,124.936 42.727,125.171 42.947 C 125.588 43.335,126.993 44.495,130.308 47.189 C 131.203 47.916,132.803 49.238,133.863 50.127 L 135.792 51.743 135.747 58.263 C 135.718 62.488,135.641 64.804,135.528 64.841 C 135.337 64.905,133.802 63.695,124.315 56.006 C 122.667 54.670,120.664 53.068,119.863 52.445 C 119.063 51.823,117.907 50.875,117.295 50.338 C 116.682 49.801,115.826 49.101,115.393 48.782 C 114.959 48.463,113.687 47.458,112.567 46.549 C 111.447 45.639,109.375 43.958,107.962 42.813 C 106.550 41.668,105.124 40.513,104.795 40.245 C 104.465 39.977,103.579 39.269,102.826 38.672 C 101.178 37.365,101.070 37.277,99.658 36.100 C 99.045 35.590,97.813 34.586,96.918 33.870 C 96.023 33.154,94.790 32.159,94.178 31.659 C 93.566 31.160,92.256 30.106,91.267 29.317 C 90.278 28.528,89.125 27.600,88.704 27.255 C 85.255 24.423,84.016 23.459,83.831 23.459 C 83.589 23.459,82.605 24.168,80.384 25.942 C 78.231 27.661,74.718 30.437,73.557 31.336 C 73.010 31.759,72.078 32.491,71.487 32.962 C 70.896 33.433,69.046 34.897,67.377 36.216 C 65.707 37.534,62.988 39.692,61.335 41.010 C 59.681 42.329,57.668 43.913,56.861 44.531 C 55.480 45.588,53.702 46.991,51.541 48.726 C 51.023 49.142,49.366 50.446,47.860 51.624 C 46.353 52.802,44.735 54.080,44.264 54.463 C 42.351 56.020,34.721 62.037,31.399 64.607 C 31.010 64.908,29.754 65.911,28.609 66.836 C 25.689 69.192,26.578 69.010,18.113 68.990 C 10.934 68.973,10.017 68.921,10.017 68.534 C 10.017 68.318,13.084 65.798,16.267 63.397 C 17.350 62.581,18.275 61.870,18.322 61.817 C 18.369 61.765,19.140 61.148,20.034 60.447 C 20.929 59.746,22.354 58.625,23.202 57.956 C 25.526 56.122,32.906 50.329,34.824 48.835 C 37.976 46.378,39.121 45.479,41.952 43.241 C 43.506 42.012,45.047 40.801,45.377 40.550 C 45.954 40.109,50.329 36.679,50.857 36.253 C 51.639 35.621,53.520 34.145,54.346 33.515 C 54.868 33.117,56.115 32.136,57.115 31.336 C 58.116 30.535,59.344 29.572,59.844 29.195 C 60.344 28.818,61.435 27.974,62.269 27.319 C 65.220 24.999,67.094 23.536,67.982 22.860 C 68.476 22.483,69.209 21.905,69.610 21.575 C 70.012 21.246,70.932 20.514,71.656 19.949 C 72.380 19.384,73.799 18.266,74.811 17.466 C 75.822 16.665,77.415 15.415,78.350 14.686 C 79.286 13.958,81.041 12.591,82.250 11.647 C 84.616 9.800,84.644 9.787,85.279 10.221 M87.158 33.177 C 88.900 34.566,91.211 36.395,92.295 37.241 C 93.378 38.087,94.302 38.825,94.349 38.882 C 94.396 38.938,95.244 39.618,96.233 40.393 C 97.222 41.168,98.262 41.983,98.545 42.204 C 98.945 42.519,101.416 44.484,102.483 45.337 C 102.577 45.413,103.617 46.239,104.795 47.173 C 109.982 51.289,113.030 53.713,114.384 54.799 C 115.184 55.441,116.879 56.784,118.151 57.784 C 121.032 60.050,121.506 60.425,125.972 63.980 C 127.966 65.568,130.547 67.618,131.708 68.536 C 132.869 69.454,134.860 71.034,136.133 72.046 C 142.300 76.950,144.301 78.535,144.722 78.851 C 144.974 79.040,146.047 79.889,147.108 80.736 C 148.168 81.584,150.004 83.045,151.188 83.983 C 156.253 87.997,157.363 88.910,157.363 89.057 C 157.363 89.148,153.799 89.212,148.741 89.212 L 140.120 89.212 136.370 86.205 C 134.307 84.550,132.464 83.067,132.273 82.908 C 132.083 82.750,131.350 82.162,130.646 81.603 C 129.942 81.044,129.020 80.307,128.596 79.965 C 125.960 77.839,120.132 73.156,117.209 70.816 C 115.325 69.308,113.746 68.032,113.699 67.981 C 113.652 67.929,112.496 67.004,111.130 65.924 C 109.765 64.844,107.988 63.420,107.182 62.759 C 106.376 62.099,105.422 61.327,105.062 61.045 C 104.702 60.762,103.166 59.531,101.647 58.310 C 85.825 45.579,83.421 43.664,83.254 43.664 C 83.158 43.664,82.231 44.339,81.193 45.163 C 80.155 45.987,78.322 47.432,77.118 48.373 C 75.914 49.315,74.387 50.514,73.723 51.038 C 70.827 53.324,68.089 55.469,66.853 56.421 C 65.591 57.393,63.479 59.049,62.158 60.100 C 61.828 60.363,60.441 61.445,59.075 62.506 C 57.710 63.567,55.706 65.139,54.623 66.000 C 53.540 66.861,51.922 68.137,51.027 68.835 C 43.233 74.917,41.754 76.101,41.607 76.375 C 41.304 76.940,41.385 98.278,41.689 98.395 C 41.827 98.448,42.733 98.106,43.701 97.635 C 44.670 97.164,45.848 96.613,46.318 96.411 C 46.789 96.208,47.329 95.975,47.517 95.893 C 48.941 95.269,53.469 93.790,55.651 93.237 C 56.263 93.081,57.149 92.849,57.620 92.721 C 58.378 92.514,61.315 91.949,64.298 91.436 C 70.803 90.317,81.325 90.323,88.014 91.448 C 92.341 92.176,96.766 93.278,100.856 94.647 C 102.959 95.351,106.462 96.669,106.890 96.917 C 107.053 97.012,107.260 97.089,107.349 97.089 C 107.438 97.089,108.036 97.326,108.678 97.617 C 109.320 97.907,110.116 98.264,110.445 98.411 C 111.919 99.066,116.547 101.430,116.902 101.709 C 117.451 102.142,117.016 102.280,116.060 101.977 C 115.166 101.693,112.364 100.982,110.616 100.595 C 109.910 100.439,109.062 100.243,108.733 100.160 C 107.867 99.942,103.688 99.140,102.483 98.961 C 95.837 97.972,93.548 97.733,87.649 97.415 C 81.418 97.079,72.193 97.835,67.380 99.076 C 64.709 99.765,63.714 100.032,63.356 100.157 C 63.121 100.240,62.466 100.439,61.901 100.600 C 59.110 101.395,53.457 103.398,51.284 104.362 C 51.002 104.487,49.846 104.997,48.716 105.495 C 43.115 107.962,37.719 111.084,33.149 114.502 C 31.888 115.446,31.416 115.714,31.311 115.548 C 31.151 115.296,31.113 71.529,31.272 70.935 C 31.328 70.725,31.732 70.286,32.168 69.961 C 33.117 69.255,34.854 67.926,41.361 62.928 C 44.059 60.856,46.670 58.853,47.164 58.476 C 52.514 54.398,58.904 49.516,60.702 48.131 C 61.455 47.551,63.074 46.314,64.298 45.381 C 65.522 44.448,67.256 43.121,68.151 42.432 C 71.036 40.210,76.881 35.736,78.508 34.503 C 82.994 31.105,83.617 30.651,83.796 30.651 C 83.902 30.651,85.415 31.788,87.158 33.177 M202.822 38.353 C 203.147 38.623,203.152 39.321,202.838 40.657 C 202.704 41.228,202.467 42.273,202.312 42.979 C 202.156 43.686,201.916 44.765,201.778 45.377 C 201.640 45.989,201.449 46.836,201.354 47.260 C 200.534 50.901,200.617 50.769,199.047 50.947 C 197.771 51.091,197.837 51.171,196.992 48.459 C 196.625 47.282,196.051 45.509,195.716 44.521 L 195.107 42.723 185.781 42.723 L 176.455 42.723 176.411 52.012 L 176.367 61.301 182.950 61.301 C 190.668 61.301,190.256 61.385,190.748 59.728 C 190.953 59.040,191.183 58.322,191.259 58.134 C 191.336 57.945,191.542 57.310,191.717 56.723 C 192.097 55.453,192.359 55.308,194.286 55.308 L 195.541 55.308 195.587 63.228 C 195.613 67.583,195.572 71.224,195.497 71.318 C 195.421 71.413,194.624 71.490,193.725 71.490 L 192.090 71.490 191.611 70.034 C 191.348 69.234,190.963 68.019,190.757 67.335 C 190.264 65.703,190.758 65.807,183.134 65.733 L 176.455 65.668 176.411 75.557 L 176.367 85.445 186.158 85.445 C 196.410 85.445,196.575 85.434,196.575 84.730 C 196.575 84.649,196.756 84.295,196.976 83.944 C 197.197 83.592,197.634 82.842,197.946 82.277 C 198.259 81.712,198.656 81.019,198.827 80.736 C 198.999 80.454,199.214 80.068,199.305 79.880 C 200.799 76.788,201.740 75.951,203.596 76.066 C 204.297 76.109,204.365 76.152,204.348 76.541 C 204.314 77.300,203.927 82.563,203.761 84.503 C 203.673 85.539,203.550 87.066,203.488 87.897 C 203.307 90.330,204.325 90.102,193.918 90.038 C 182.358 89.968,171.345 89.968,165.259 90.040 C 161.343 90.086,160.370 90.053,160.253 89.869 C 160.055 89.557,160.064 87.544,160.264 87.421 C 160.436 87.314,164.063 86.349,165.068 86.142 C 166.033 85.944,166.415 85.659,166.525 85.058 C 166.778 83.664,166.531 42.827,166.267 42.568 C 166.126 42.429,165.394 42.149,164.640 41.946 C 163.887 41.743,162.885 41.467,162.414 41.334 C 161.943 41.201,161.309 41.044,161.004 40.986 C 160.700 40.928,160.379 40.794,160.291 40.688 C 160.111 40.471,159.992 38.503,160.143 38.258 C 160.307 37.993,202.502 38.088,202.822 38.353 M377.825 42.468 C 382.666 42.777,387.196 43.329,387.985 43.706 C 388.589 43.995,388.624 44.414,388.183 46.105 C 387.980 46.882,387.715 47.941,387.592 48.459 C 385.990 55.239,385.998 55.220,384.502 55.366 C 383.228 55.489,383.181 55.458,382.739 54.195 C 382.084 52.324,382.025 52.153,381.402 50.342 C 381.063 49.354,380.747 48.377,380.700 48.173 C 380.173 45.847,369.280 45.538,364.734 47.721 C 361.920 49.073,360.873 50.639,360.873 53.499 L 360.873 55.394 361.558 56.417 C 363.228 58.910,366.383 60.662,373.459 63.025 C 384.220 66.619,387.815 68.756,389.818 72.752 C 391.643 76.394,390.558 82.068,387.527 84.732 C 382.725 88.952,376.198 90.808,366.182 90.801 C 361.090 90.798,359.402 90.658,354.281 89.813 C 350.247 89.148,349.711 88.928,349.883 88.014 C 349.928 87.778,350.094 86.931,350.252 86.130 C 350.773 83.500,351.169 81.431,351.613 79.024 C 352.085 76.469,352.175 76.377,354.217 76.372 C 355.113 76.369,355.103 76.354,355.981 79.110 C 358.222 86.140,357.965 85.691,360.010 86.138 C 368.787 88.056,377.035 86.355,379.288 82.161 C 381.500 78.044,378.264 73.528,371.575 71.397 C 371.340 71.322,370.146 70.902,368.921 70.463 C 367.697 70.023,366.233 69.515,365.668 69.332 C 364.469 68.943,362.394 68.192,361.901 67.967 C 361.712 67.882,361.019 67.612,360.360 67.369 C 352.642 64.517,348.927 59.300,350.186 53.082 C 351.657 45.822,362.879 41.512,377.825 42.468 M320.064 42.749 C 320.236 42.905,320.377 43.088,320.377 43.157 C 320.377 43.225,321.060 44.696,321.895 46.426 C 323.313 49.364,324.062 50.918,326.674 56.336 C 327.241 57.513,328.129 59.362,328.646 60.445 C 330.673 64.693,331.763 66.963,332.877 69.264 C 334.719 73.068,336.437 76.637,337.451 78.767 C 341.027 86.278,340.818 86.078,346.233 87.158 C 347.943 87.499,347.945 87.501,347.945 88.856 C 347.945 90.333,348.539 90.222,341.519 90.056 C 338.329 89.981,335.675 89.947,335.620 89.981 C 335.565 90.015,333.142 90.062,330.237 90.086 C 324.141 90.136,324.432 90.215,324.522 88.533 L 324.572 87.597 325.685 87.305 C 326.297 87.144,327.376 86.886,328.082 86.731 C 330.633 86.170,330.634 86.152,328.207 80.993 C 327.786 80.098,327.267 78.981,327.054 78.510 C 326.841 78.039,326.292 76.856,325.834 75.880 C 325.375 74.904,325.000 74.061,325.000 74.007 C 325.000 73.953,324.832 73.731,324.628 73.513 L 324.255 73.116 314.739 73.119 C 303.468 73.122,304.713 72.914,303.641 74.970 C 300.140 81.685,299.419 83.111,298.696 84.739 C 298.038 86.221,297.994 86.194,302.613 87.175 C 303.823 87.431,303.883 87.501,304.031 88.812 C 304.185 90.172,303.991 90.301,302.005 90.157 C 300.094 90.018,287.652 90.018,286.002 90.156 C 284.304 90.299,284.113 90.168,283.968 88.765 C 283.833 87.450,283.654 87.556,287.414 86.737 C 289.915 86.193,290.632 85.802,291.563 84.473 C 291.944 83.929,292.083 83.691,293.149 81.764 C 293.462 81.199,293.811 80.582,293.926 80.394 C 294.040 80.205,294.442 79.473,294.819 78.767 C 295.196 78.061,295.678 77.175,295.891 76.798 C 296.552 75.627,297.974 73.075,298.513 72.089 C 299.397 70.474,301.023 67.564,301.191 67.295 C 301.280 67.153,301.598 66.575,301.898 66.010 C 302.198 65.445,302.923 64.135,303.508 63.099 C 304.094 62.063,304.865 60.676,305.221 60.017 C 305.577 59.358,306.349 57.971,306.936 56.935 C 307.523 55.899,308.273 54.551,308.603 53.938 C 308.932 53.326,310.165 51.092,311.341 48.973 C 312.518 46.854,313.693 44.735,313.954 44.264 C 314.680 42.952,314.853 42.810,315.737 42.796 C 316.170 42.789,316.871 42.721,317.295 42.646 C 318.662 42.402,319.724 42.442,320.064 42.749 M234.079 43.848 C 234.532 45.532,234.362 45.685,231.336 46.321 C 229.294 46.750,228.048 47.066,227.928 47.186 C 227.799 47.315,227.696 84.879,227.824 85.402 L 227.917 85.788 237.841 85.788 L 247.765 85.788 249.097 83.743 C 249.829 82.619,251.073 80.694,251.861 79.466 C 253.440 77.006,253.386 77.044,255.353 76.993 L 256.250 76.969 256.235 77.654 C 256.227 78.031,256.085 79.919,255.919 81.849 C 255.753 83.780,255.564 86.266,255.499 87.373 C 255.397 89.122,255.333 89.435,255.009 89.759 L 254.636 90.132 245.854 90.057 C 234.295 89.959,222.254 89.963,216.543 90.066 C 211.250 90.162,211.501 90.238,211.427 88.517 L 211.387 87.597 212.500 87.313 C 213.112 87.157,214.229 86.894,214.983 86.728 C 215.736 86.562,216.661 86.335,217.038 86.222 L 217.723 86.017 217.828 83.976 C 217.973 81.162,218.006 52.824,217.867 49.938 C 217.729 47.052,217.835 47.188,215.239 46.573 C 211.262 45.631,211.301 45.654,211.301 44.280 C 211.301 43.784,211.353 43.328,211.416 43.265 C 211.478 43.202,216.561 43.151,222.710 43.151 L 233.891 43.151 234.079 43.848 M283.129 43.536 C 283.632 45.751,283.752 45.592,281.134 46.164 C 277.596 46.936,277.093 47.097,276.986 47.496 C 276.767 48.310,276.876 85.541,277.098 85.838 C 277.293 86.100,278.814 86.538,281.727 87.171 C 283.127 87.475,283.239 87.595,283.343 88.897 C 283.457 90.314,283.956 90.214,277.478 90.071 C 274.561 90.007,269.709 90.008,266.695 90.072 C 260.455 90.206,260.732 90.264,260.553 88.784 C 260.414 87.624,260.527 87.511,262.179 87.155 C 265.201 86.504,266.087 86.296,266.485 86.145 C 266.895 85.989,266.897 85.975,267.010 82.607 C 267.150 78.425,267.123 52.816,266.975 49.663 C 266.843 46.858,267.232 47.196,263.025 46.229 C 260.612 45.675,260.677 45.716,260.544 44.653 C 260.337 42.994,259.161 43.151,271.847 43.151 L 283.041 43.151 283.129 43.536 M314.293 54.666 C 313.937 55.349,313.283 56.601,312.840 57.449 C 312.397 58.296,311.572 59.876,311.006 60.959 C 307.790 67.116,307.006 68.719,307.146 68.858 C 307.232 68.944,310.554 68.991,314.734 68.966 C 323.328 68.914,322.625 69.122,321.602 66.935 C 321.232 66.144,320.757 65.111,320.546 64.640 C 320.335 64.170,319.739 62.898,319.222 61.815 C 318.706 60.732,318.069 59.384,317.808 58.818 C 316.202 55.342,315.239 53.425,315.099 53.425 C 315.012 53.425,314.648 53.983,314.293 54.666 M81.644 61.678 C 82.041 62.076,81.925 69.982,81.518 70.199 C 80.930 70.514,73.196 70.432,72.872 70.108 C 72.522 69.758,72.464 62.023,72.808 61.678 C 73.100 61.386,81.352 61.386,81.644 61.678 M94.759 61.743 C 94.930 62.188,94.872 69.755,94.696 70.034 C 94.443 70.434,86.457 70.518,85.860 70.127 L 85.445 69.855 85.445 65.995 C 85.445 63.662,85.515 62.004,85.622 61.804 C 85.871 61.340,94.582 61.283,94.759 61.743 M81.518 73.807 C 81.981 74.055,82.039 82.254,81.578 82.430 C 81.035 82.639,73.025 82.546,72.808 82.329 C 72.578 82.098,72.509 74.385,72.734 74.031 C 72.981 73.644,80.839 73.444,81.518 73.807 M94.635 73.858 C 94.798 74.021,94.933 81.548,94.784 82.143 L 94.685 82.534 90.271 82.534 C 87.065 82.534,85.800 82.478,85.651 82.329 C 85.392 82.070,85.361 74.730,85.615 74.061 L 85.785 73.614 90.139 73.665 C 92.534 73.693,94.557 73.780,94.635 73.858 M125.551 84.221 C 125.860 84.396,126.460 84.769,126.884 85.051 C 127.307 85.333,129.373 86.703,131.475 88.096 C 133.576 89.488,135.406 90.739,135.541 90.874 C 135.794 91.127,135.936 124.587,135.687 125.235 C 135.618 125.415,135.497 125.453,135.302 125.355 C 131.725 123.562,127.509 121.589,125.342 120.693 C 124.448 120.324,123.562 119.951,123.373 119.865 C 122.087 119.277,113.572 116.096,113.286 116.096 C 113.212 116.096,112.908 115.989,112.611 115.859 C 112.315 115.729,111.533 115.453,110.873 115.246 C 110.214 115.038,108.711 114.560,107.534 114.182 C 104.253 113.131,101.887 112.438,98.887 111.649 C 97.380 111.253,95.955 110.860,95.719 110.777 C 91.162 109.164,78.979 108.259,71.661 108.990 C 64.947 109.661,59.438 110.773,54.220 112.509 C 53.104 112.881,52.114 113.185,52.020 113.185 C 51.926 113.185,51.607 113.289,51.310 113.415 C 46.692 115.388,49.783 112.789,55.822 109.621 C 57.062 108.970,58.511 108.304,62.586 106.513 C 63.936 105.919,66.626 104.976,68.236 104.533 C 68.707 104.403,69.516 104.173,70.034 104.022 C 72.595 103.272,75.848 102.622,80.051 102.019 C 85.271 101.270,96.665 101.793,104.709 103.149 C 105.363 103.259,109.164 104.134,109.675 104.291 C 109.957 104.378,110.997 104.687,111.986 104.976 C 113.606 105.450,115.609 106.132,116.524 106.522 C 116.712 106.602,117.480 106.907,118.230 107.199 C 118.980 107.492,120.623 108.236,121.882 108.852 C 123.394 109.593,124.228 109.916,124.340 109.804 C 124.448 109.695,124.521 105.069,124.541 96.983 C 124.558 90.025,124.634 84.236,124.710 84.118 C 124.887 83.845,124.885 83.845,125.551 84.221 M174.196 97.491 C 176.047 97.899,176.084 98.010,175.523 101.455 C 175.007 104.618,174.935 104.773,174.073 104.557 C 173.744 104.474,173.638 104.306,173.549 103.725 C 173.487 103.324,173.280 102.330,173.089 101.515 L 172.742 100.034 172.025 99.760 C 169.878 98.940,166.526 99.893,165.264 101.682 C 163.359 104.384,162.345 110.139,163.197 113.422 C 164.932 120.111,168.742 122.403,174.707 120.345 C 175.957 119.914,176.199 120.000,176.199 120.877 C 176.199 122.989,169.839 124.762,166.524 123.574 C 163.396 122.453,161.243 120.193,159.970 116.695 C 158.835 113.577,158.819 107.543,159.939 104.880 C 161.780 100.504,164.012 98.405,167.894 97.402 C 169.317 97.034,172.318 97.076,174.196 97.491 M354.012 100.574 C 354.184 101.051,353.778 101.712,353.313 101.712 C 352.390 101.712,352.397 101.638,352.397 111.630 C 352.397 121.813,352.352 121.287,353.262 121.751 C 353.970 122.112,354.222 122.586,353.965 123.067 C 353.793 123.388,348.465 123.524,347.974 123.220 C 347.452 122.897,347.753 122.079,348.518 121.740 L 349.263 121.411 349.374 119.738 C 349.518 117.567,349.517 105.889,349.373 103.716 L 349.262 102.037 348.653 101.783 C 347.971 101.498,347.780 101.276,347.777 100.762 C 347.772 100.139,348.036 100.085,350.976 100.108 L 353.853 100.130 354.012 100.574 M189.186 103.868 C 195.878 106.259,196.072 120.208,189.453 123.032 C 187.848 123.718,183.959 124.134,183.661 123.653 C 183.611 123.571,183.269 123.456,182.902 123.397 C 177.002 122.454,175.354 110.035,180.513 105.396 C 182.588 103.530,186.373 102.863,189.186 103.868 M222.260 103.843 C 223.542 104.124,223.556 104.286,222.673 108.690 C 222.551 109.303,221.616 109.236,221.482 108.604 C 220.856 105.653,220.795 105.548,219.644 105.413 C 217.470 105.160,216.395 105.976,216.295 107.955 C 216.195 109.929,216.754 110.619,219.777 112.252 C 223.500 114.264,224.834 117.184,223.467 120.330 C 222.183 123.284,216.818 124.732,213.505 123.019 L 212.969 122.742 213.088 121.273 C 213.319 118.435,213.600 117.466,214.192 117.466 C 214.588 117.466,214.836 117.938,214.976 118.958 C 215.306 121.354,215.717 121.812,217.551 121.825 C 219.360 121.838,220.425 120.979,220.651 119.327 C 220.914 117.409,220.097 116.379,217.069 114.808 C 214.099 113.268,212.937 111.532,213.057 108.818 C 213.245 104.597,216.835 102.655,222.260 103.843 M316.971 103.599 C 321.037 104.365,323.164 107.683,323.170 113.271 C 323.177 119.927,320.042 123.796,314.640 123.798 C 309.311 123.800,306.460 120.318,306.441 113.784 C 306.420 106.455,310.613 102.400,316.971 103.599 M385.046 103.883 C 386.236 104.187,386.310 104.304,386.125 105.570 C 385.599 109.164,385.575 109.238,384.899 109.244 C 384.453 109.248,384.425 109.178,383.934 106.887 C 383.501 104.865,379.872 104.859,377.972 106.877 C 376.132 108.830,375.354 114.195,376.497 117.038 C 376.686 117.509,376.929 118.113,377.036 118.382 C 377.959 120.695,381.568 122.010,384.589 121.135 C 386.209 120.666,386.259 120.662,386.437 121.002 C 387.303 122.653,382.192 124.413,378.998 123.563 C 370.710 121.356,370.591 106.607,378.840 104.002 C 380.581 103.452,383.160 103.403,385.046 103.883 M281.757 103.844 C 283.268 104.237,283.186 103.922,282.642 107.247 C 282.322 109.207,282.305 109.247,281.749 109.247 C 281.265 109.247,281.097 108.909,280.744 107.229 C 280.407 105.619,280.219 105.479,278.396 105.479 C 273.540 105.479,270.999 112.119,273.633 117.928 C 275.077 121.112,279.302 122.449,282.504 120.735 C 283.598 120.150,283.414 121.816,282.303 122.558 C 278.692 124.972,273.474 123.830,271.158 120.120 C 269.839 118.007,269.613 117.073,269.625 113.784 C 269.645 108.458,271.711 105.281,276.113 103.805 C 276.923 103.533,280.663 103.559,281.757 103.844 M203.680 110.187 C 206.191 113.942,207.924 116.374,208.114 116.410 C 208.413 116.468,208.424 116.237,208.352 111.275 C 208.275 105.961,208.223 105.479,207.725 105.479 C 207.137 105.479,206.656 104.964,206.711 104.393 L 206.764 103.853 209.247 103.913 C 212.032 103.980,211.986 103.970,211.986 104.557 C 211.986 104.898,211.833 105.053,211.234 105.318 C 210.214 105.769,210.274 105.180,210.274 114.721 L 210.274 123.251 209.846 123.358 C 209.074 123.552,208.663 123.305,207.959 122.223 C 207.584 121.647,206.909 120.629,206.459 119.963 C 206.009 119.296,204.286 116.727,202.631 114.255 C 200.976 111.783,199.552 109.760,199.466 109.760 C 199.375 109.760,199.329 112.192,199.356 115.625 L 199.401 121.490 200.118 121.823 C 200.850 122.163,201.222 122.819,200.878 123.163 C 200.625 123.416,195.901 123.422,195.691 123.169 C 195.458 122.887,195.578 122.235,195.890 122.091 C 196.032 122.026,196.378 121.861,196.661 121.725 L 197.175 121.477 197.219 113.813 C 197.264 106.156,197.220 105.479,196.678 105.479 C 196.314 105.479,195.548 104.798,195.548 104.474 C 195.548 103.925,195.845 103.851,197.715 103.938 L 199.559 104.024 203.680 110.187 M237.914 104.883 C 237.895 106.188,237.494 108.923,237.279 109.204 C 236.997 109.573,236.318 109.463,236.222 109.033 C 236.175 108.821,235.998 108.031,235.830 107.277 L 235.525 105.908 234.333 105.856 C 233.677 105.828,232.966 105.848,232.752 105.902 L 232.363 106.000 232.363 113.697 L 232.363 121.395 232.834 121.633 C 233.093 121.763,233.517 121.921,233.776 121.983 C 234.351 122.121,234.486 123.198,233.947 123.348 C 233.711 123.413,228.058 123.375,227.526 123.305 C 227.117 123.251,227.418 122.091,227.868 121.983 C 228.127 121.921,228.552 121.763,228.812 121.632 L 229.284 121.394 229.240 113.651 L 229.195 105.908 227.654 105.908 L 226.113 105.908 225.578 107.521 C 225.006 109.246,224.599 109.776,224.174 109.350 C 223.923 109.100,223.516 104.654,223.699 104.176 C 223.773 103.983,233.752 103.752,237.671 103.853 C 237.872 103.858,237.925 104.083,237.914 104.883 M248.076 104.283 C 251.651 105.864,251.495 112.073,247.839 113.739 C 247.282 113.993,247.242 113.870,248.997 117.314 C 250.619 120.498,251.375 121.552,252.397 122.052 C 252.829 122.264,253.012 122.476,253.050 122.811 C 253.119 123.410,252.734 123.515,250.755 123.434 L 249.276 123.373 248.521 122.539 C 248.001 121.964,247.235 120.624,246.058 118.228 C 244.359 114.771,244.174 114.521,243.447 114.695 C 243.167 114.762,243.147 115.032,243.190 118.129 L 243.236 121.490 244.050 121.878 C 245.107 122.384,245.250 123.209,244.307 123.363 C 243.500 123.495,238.994 123.387,238.741 123.229 C 238.226 122.909,238.507 122.277,239.341 121.878 L 240.154 121.490 240.154 113.613 L 240.154 105.736 239.600 105.459 C 238.761 105.041,238.506 104.775,238.562 104.381 C 238.659 103.701,246.574 103.619,248.076 104.283 M258.250 104.272 C 258.443 104.797,258.286 105.029,257.487 105.400 L 256.764 105.736 256.764 112.072 C 256.765 120.672,257.134 121.575,260.645 121.575 C 264.085 121.575,264.603 120.192,264.521 111.227 L 264.469 105.587 263.942 105.450 C 263.296 105.283,262.792 104.757,262.872 104.336 C 262.940 103.983,268.038 103.757,268.373 104.092 C 268.716 104.435,268.339 105.093,267.639 105.373 C 267.261 105.524,266.942 105.668,266.930 105.692 C 266.918 105.716,266.850 108.549,266.779 111.986 C 266.626 119.411,266.461 120.241,264.773 122.109 C 262.710 124.392,257.677 124.405,255.624 122.131 C 253.985 120.318,253.743 119.065,253.666 111.986 C 253.631 108.831,253.601 106.115,253.599 105.949 C 253.597 105.759,253.343 105.547,252.909 105.373 C 252.190 105.085,251.854 104.472,252.192 104.065 C 252.535 103.651,258.090 103.842,258.250 104.272 M297.881 104.189 C 297.932 104.322,297.880 105.110,297.765 105.940 C 297.650 106.770,297.521 107.816,297.477 108.264 C 297.310 109.987,296.213 109.928,295.922 108.181 C 295.824 107.590,295.677 106.836,295.596 106.507 L 295.448 105.908 293.914 105.908 L 292.380 105.908 292.336 113.658 L 292.291 121.408 292.935 121.684 C 294.049 122.161,294.091 122.198,294.145 122.734 C 294.215 123.428,294.169 123.436,290.582 123.386 C 286.978 123.335,287.329 123.408,287.329 122.711 C 287.329 122.173,287.389 122.112,288.228 121.793 L 289.127 121.452 289.171 113.871 C 289.223 105.132,289.369 105.822,287.470 105.822 L 286.113 105.822 285.844 106.464 C 285.697 106.817,285.466 107.526,285.333 108.038 C 284.875 109.796,284.071 109.990,283.873 108.390 C 283.502 105.387,283.502 104.121,283.872 103.984 C 284.570 103.725,297.777 103.918,297.881 104.189 M304.625 104.025 C 305.162 104.357,304.730 105.145,303.857 105.426 C 303.121 105.664,303.116 105.715,303.120 113.442 C 303.123 121.553,303.103 121.365,304.026 121.842 C 304.664 122.172,305.155 123.269,304.677 123.296 C 301.574 123.471,298.749 123.348,298.632 123.033 C 298.441 122.520,298.689 122.035,299.214 121.895 C 300.218 121.626,300.171 122.028,300.169 113.635 C 300.166 105.547,300.171 105.603,299.486 105.396 C 298.710 105.161,298.223 104.103,298.801 103.910 C 299.100 103.810,304.449 103.916,304.625 104.025 M328.510 104.131 C 328.604 104.218,330.493 106.998,332.707 110.307 C 334.921 113.617,336.828 116.357,336.945 116.396 C 337.183 116.475,337.263 106.073,337.026 105.719 C 336.957 105.616,336.670 105.455,336.387 105.363 C 335.845 105.186,335.414 104.562,335.564 104.171 C 335.634 103.989,336.228 103.938,338.289 103.938 L 340.925 103.938 340.925 104.462 C 340.925 104.915,340.825 105.029,340.172 105.318 C 339.152 105.769,339.212 105.179,339.212 114.737 L 339.212 123.281 338.760 123.395 C 337.923 123.605,337.561 123.271,335.924 120.777 C 334.171 118.106,330.903 113.198,330.696 112.927 C 330.624 112.833,330.117 112.081,329.570 111.258 C 329.022 110.434,328.501 109.760,328.411 109.760 C 328.311 109.760,328.266 112.008,328.294 115.625 L 328.339 121.490 329.074 121.831 C 329.890 122.210,330.213 122.855,329.754 123.190 C 329.589 123.311,328.583 123.380,327.032 123.378 L 324.572 123.373 324.519 122.825 C 324.470 122.320,324.532 122.245,325.289 121.883 L 326.113 121.490 326.113 113.613 L 326.113 105.736 325.385 105.398 C 324.635 105.050,324.391 104.680,324.560 104.148 C 324.667 103.811,328.150 103.796,328.510 104.131 M357.615 103.938 L 359.208 103.938 363.380 110.183 C 365.674 113.618,367.628 116.405,367.723 116.376 C 367.905 116.321,368.066 106.732,367.896 106.036 C 367.841 105.813,367.539 105.524,367.178 105.351 C 366.405 104.980,366.115 104.560,366.361 104.171 C 366.597 103.796,371.363 103.769,371.598 104.141 C 371.915 104.640,371.253 105.479,370.543 105.479 C 370.046 105.479,370.034 105.697,370.034 114.651 L 370.034 123.281 369.624 123.384 C 368.597 123.642,368.624 123.674,363.878 116.569 C 361.378 112.826,359.274 109.763,359.204 109.762 C 359.133 109.761,359.075 112.406,359.075 115.639 L 359.075 121.517 359.546 121.737 C 359.805 121.858,360.133 122.014,360.274 122.084 C 360.585 122.236,360.712 122.918,360.473 123.157 C 360.291 123.339,356.117 123.509,355.608 123.355 C 354.958 123.159,355.226 122.204,356.036 121.828 C 356.987 121.386,356.997 121.296,357.000 112.928 C 357.003 105.394,357.048 105.754,356.060 105.318 C 355.157 104.918,354.892 103.505,355.784 103.847 C 355.915 103.897,356.738 103.938,357.615 103.938 M184.490 105.370 C 181.507 106.038,180.021 109.966,180.708 115.362 C 181.302 120.030,182.880 121.950,186.114 121.941 C 189.661 121.931,191.009 119.685,191.010 113.784 C 191.010 110.626,190.946 110.093,190.371 108.521 C 189.452 106.004,187.154 104.773,184.490 105.370 M313.356 105.374 C 311.026 105.967,310.002 107.699,309.597 111.729 C 308.979 117.872,311.115 121.918,314.976 121.918 C 318.633 121.918,319.942 119.771,319.935 113.784 C 319.927 107.171,317.663 104.277,313.356 105.374 M243.356 105.856 C 243.211 106.002,243.151 107.023,243.151 109.359 L 243.151 112.656 243.751 112.768 C 246.387 113.263,248.150 110.910,247.352 107.962 C 246.849 106.103,244.400 104.812,243.356 105.856 M390.588 119.952 C 392.522 120.952,391.354 124.446,389.362 123.621 C 387.955 123.038,387.892 120.540,389.269 119.941 C 389.960 119.641,389.987 119.641,390.588 119.952 M389.962 136.693 C 390.189 136.859,390.250 137.102,390.209 137.677 L 390.154 138.442 200.342 138.442 L 10.531 138.442 10.478 137.701 C 10.448 137.294,10.515 136.851,10.627 136.717 C 10.915 136.369,389.486 136.345,389.962 136.693 M90.882 145.471 C 91.186 145.565,91.194 159.422,90.890 159.726 C 90.428 160.188,87.514 159.990,87.321 159.483 C 87.124 158.966,87.108 146.998,87.303 146.062 C 87.458 145.315,89.357 145.001,90.882 145.471 M97.988 145.484 C 98.392 145.601,98.458 159.406,98.056 159.739 C 97.692 160.041,95.852 160.173,95.165 159.946 L 94.560 159.747 94.465 158.341 C 94.324 156.254,94.345 146.755,94.492 146.062 C 94.659 145.275,96.322 145.000,97.988 145.484 M166.567 145.592 C 166.826 145.796,166.850 147.153,166.604 147.614 C 166.447 147.907,166.232 147.945,164.754 147.945 C 162.771 147.945,162.671 147.878,162.671 146.544 C 162.671 145.483,162.607 145.553,163.784 145.323 C 164.336 145.215,166.333 145.408,166.567 145.592 M283.433 145.492 C 283.609 145.596,283.592 159.448,283.415 159.726 C 283.188 160.083,280.293 160.041,279.729 159.672 C 279.303 159.393,279.233 159.401,277.998 159.851 C 274.189 161.240,271.332 159.075,271.322 154.795 C 271.316 152.074,272.280 150.443,274.465 149.476 C 275.315 149.100,277.876 149.009,278.708 149.325 C 279.440 149.603,279.623 149.205,279.623 147.334 C 279.623 145.597,279.698 145.451,280.651 145.327 C 281.277 145.245,283.211 145.360,283.433 145.492 M304.760 145.582 C 305.078 145.900,305.052 159.234,304.733 159.671 C 304.254 160.326,301.326 160.086,301.136 159.377 C 300.960 158.720,301.014 146.291,301.194 145.816 C 301.384 145.318,304.304 145.126,304.760 145.582 M312.123 145.582 C 312.236 145.695,312.329 146.181,312.329 146.661 C 312.329 147.856,312.192 147.945,310.360 147.945 C 309.376 147.945,308.726 147.869,308.596 147.740 C 308.381 147.525,308.306 145.689,308.505 145.491 C 308.713 145.283,311.904 145.363,312.123 145.582 M117.499 145.798 C 120.950 146.258,121.115 146.370,121.078 148.241 C 121.046 149.918,121.065 149.907,119.435 149.231 C 117.564 148.455,115.738 148.160,114.508 148.435 C 112.290 148.932,112.376 150.565,114.640 150.937 C 116.569 151.255,118.870 151.834,119.435 152.145 C 121.189 153.109,121.673 153.875,121.638 155.632 C 121.566 159.297,116.891 161.114,110.809 159.840 C 108.539 159.365,108.287 159.083,108.424 157.183 C 108.529 155.737,108.654 155.671,110.048 156.330 C 113.174 157.806,117.036 157.852,117.397 156.416 C 117.591 155.643,116.532 154.942,114.812 154.705 C 110.516 154.112,108.562 152.682,108.562 150.131 C 108.562 147.505,110.899 145.968,115.497 145.569 C 115.591 145.561,116.492 145.664,117.499 145.798 M69.435 147.260 L 69.435 148.545 66.130 148.633 C 62.427 148.733,62.505 148.703,62.505 150.000 C 62.505 151.151,62.540 151.170,64.643 151.204 C 65.677 151.220,67.083 151.273,67.765 151.322 L 69.007 151.410 69.007 152.593 C 69.007 154.099,68.981 154.110,65.520 154.110 C 62.275 154.110,62.500 153.893,62.500 157.021 C 62.500 158.737,62.436 159.585,62.295 159.726 C 61.958 160.062,58.627 160.005,58.494 159.661 C 58.351 159.286,58.363 146.146,58.507 146.002 C 58.571 145.938,61.056 145.906,64.029 145.931 L 69.435 145.976 69.435 147.260 M214.951 146.547 C 217.662 147.882,217.961 150.797,215.616 153.040 C 214.299 154.300,214.276 154.134,216.031 156.102 C 217.664 157.932,218.848 159.465,218.783 159.663 C 218.682 159.963,217.121 160.137,215.624 160.016 L 214.210 159.901 213.571 159.103 C 210.368 155.099,210.066 154.795,209.305 154.795 C 208.508 154.795,208.390 155.143,208.390 157.502 C 208.390 159.159,208.339 159.590,208.119 159.772 C 207.747 160.081,204.627 160.042,204.427 159.726 C 204.182 159.339,204.246 146.336,204.495 146.085 C 204.659 145.919,205.760 145.881,209.251 145.922 L 213.793 145.976 214.951 146.547 M208.596 148.836 C 208.470 148.962,208.390 149.578,208.390 150.428 C 208.390 152.117,208.481 152.226,209.882 152.226 C 212.103 152.226,213.430 150.904,212.657 149.461 C 212.268 148.733,209.175 148.257,208.596 148.836 M132.962 149.518 C 134.804 150.260,135.854 151.992,135.754 154.121 L 135.702 155.223 131.652 155.268 C 127.267 155.318,127.219 155.330,127.566 156.244 C 128.103 157.655,131.424 158.163,133.818 157.201 C 134.007 157.125,134.385 156.973,134.658 156.862 C 135.295 156.605,135.430 156.754,135.560 157.855 C 135.728 159.274,135.525 159.492,133.618 159.938 C 127.811 161.299,123.382 158.995,123.402 154.623 C 123.422 150.319,128.381 147.670,132.962 149.518 M229.508 149.474 C 231.327 150.253,232.334 151.905,232.355 154.142 C 232.366 155.233,232.444 155.211,228.101 155.308 C 223.791 155.404,223.526 155.484,224.252 156.458 C 225.365 157.951,228.133 158.141,230.950 156.917 L 231.848 156.526 231.944 156.909 C 232.190 157.890,231.952 159.321,231.507 159.532 C 228.937 160.750,224.110 160.395,221.821 158.818 C 219.063 156.919,219.306 151.936,222.246 150.098 C 224.043 148.975,227.626 148.667,229.508 149.474 M325.514 149.506 C 327.245 150.415,327.302 150.591,327.366 155.207 C 327.438 160.362,327.607 159.932,325.514 159.932 C 323.461 159.932,323.651 160.314,323.589 156.049 C 323.533 152.137,322.917 151.301,320.645 152.051 C 319.516 152.424,319.521 152.406,319.521 156.156 C 319.521 160.197,319.650 159.964,317.440 159.895 L 315.839 159.846 315.839 154.623 L 315.839 149.401 317.581 149.352 C 319.204 149.307,319.330 149.327,319.433 149.652 C 319.573 150.093,319.951 150.092,320.874 149.646 C 322.338 148.938,324.318 148.879,325.514 149.506 M178.933 149.430 C 180.317 149.939,180.493 150.312,180.198 152.098 C 180.068 152.887,179.902 152.898,178.509 152.212 C 175.964 150.960,173.919 151.643,173.299 153.953 C 172.475 157.017,176.026 158.867,178.990 156.918 C 180.022 156.240,180.308 156.445,180.308 157.862 C 180.308 161.696,171.712 160.981,169.669 156.977 C 168.897 155.462,169.219 152.711,170.343 151.233 C 171.688 149.465,176.362 148.483,178.933 149.430 M191.651 149.551 C 193.266 150.347,194.231 152.105,194.143 154.093 L 194.092 155.223 190.168 155.269 C 186.163 155.316,185.750 155.385,185.907 155.983 C 186.338 157.632,189.195 158.182,192.165 157.187 C 193.956 156.587,193.878 156.558,193.972 157.856 C 194.105 159.688,193.107 160.176,189.212 160.184 C 184.255 160.194,181.810 158.378,181.812 154.686 C 181.814 152.205,182.950 150.507,185.259 149.537 C 186.520 149.008,190.567 149.016,191.651 149.551 M244.127 149.350 C 244.391 149.464,244.887 149.772,245.230 150.035 C 246.007 150.631,245.888 150.642,247.484 149.827 C 250.572 148.250,253.401 149.221,253.935 152.039 C 254.122 153.023,254.179 159.209,254.006 159.661 C 253.870 160.013,250.664 160.062,250.377 159.716 C 250.271 159.589,250.176 158.130,250.142 156.125 C 250.088 152.876,250.071 152.734,249.695 152.359 C 249.212 151.876,247.811 151.838,246.961 152.285 L 246.404 152.577 246.404 156.049 C 246.404 160.172,246.528 159.932,244.396 159.932 C 242.396 159.932,242.466 160.071,242.466 156.051 C 242.466 152.132,242.129 151.575,240.009 151.977 C 238.789 152.208,238.790 152.204,238.731 156.038 C 238.699 158.145,238.607 159.579,238.496 159.712 C 238.210 160.058,235.378 160.011,235.022 159.655 C 234.623 159.256,234.698 149.738,235.103 149.482 C 235.644 149.140,238.213 149.282,238.634 149.677 L 239.019 150.039 240.100 149.607 C 241.317 149.122,243.303 148.995,244.127 149.350 M266.377 149.682 C 271.025 151.971,270.386 158.450,265.358 160.005 C 259.581 161.791,254.760 157.006,257.215 151.922 C 258.473 149.318,263.260 148.148,266.377 149.682 M296.153 149.666 C 297.853 150.539,299.198 153.646,298.401 154.862 L 298.109 155.308 294.445 155.308 C 290.436 155.308,290.240 155.336,290.240 155.903 C 290.240 157.559,293.995 158.268,296.742 157.130 C 298.202 156.525,298.288 156.575,298.288 158.037 C 298.288 159.070,298.239 159.260,297.936 159.423 C 295.043 160.971,288.850 160.235,287.274 158.155 C 285.106 155.295,286.088 151.135,289.285 149.635 C 290.767 148.940,294.774 148.958,296.153 149.666 M339.648 149.298 C 342.594 149.277,342.329 148.691,342.261 155.082 C 342.196 161.138,342.167 161.283,340.741 162.565 C 339.392 163.777,334.894 164.344,332.192 163.642 L 331.421 163.442 331.371 162.198 C 331.311 160.712,331.357 160.676,332.887 161.036 C 335.884 161.743,338.653 160.966,338.290 159.522 L 338.180 159.082 337.320 159.421 C 334.837 160.400,331.684 159.486,330.694 157.499 C 328.563 153.226,331.084 148.988,335.616 149.221 C 336.605 149.272,338.420 149.306,339.648 149.298 M75.536 149.598 C 75.710 149.807,75.793 150.738,75.856 153.181 C 75.939 156.381,75.954 156.494,76.357 156.922 C 76.895 157.494,78.266 157.538,79.288 157.017 L 79.966 156.671 79.966 153.185 C 79.966 149.037,79.832 149.283,82.046 149.351 L 83.647 149.401 83.693 154.527 C 83.721 157.769,83.675 159.715,83.567 159.823 C 83.230 160.161,80.472 159.990,79.943 159.600 C 79.429 159.219,79.446 159.216,77.757 159.998 C 77.279 160.219,75.381 160.248,74.428 160.048 C 73.500 159.853,72.378 158.695,72.118 157.663 C 71.768 156.274,71.848 149.715,72.217 149.500 C 72.740 149.196,75.263 149.270,75.536 149.598 M141.963 149.492 C 142.145 149.590,142.295 149.808,142.295 149.977 C 142.295 150.513,142.482 150.512,143.512 149.977 C 144.687 149.365,146.506 149.100,146.761 149.504 C 146.933 149.775,146.972 151.884,146.814 152.298 C 146.730 152.517,146.416 152.568,145.164 152.568 C 144.314 152.568,143.321 152.658,142.957 152.767 L 142.295 152.965 142.295 156.009 C 142.295 160.083,142.370 159.932,140.336 159.932 C 138.221 159.932,138.356 160.293,138.356 154.623 C 138.356 151.748,138.424 149.851,138.533 149.646 C 138.736 149.268,141.327 149.152,141.963 149.492 M151.413 149.529 C 151.567 149.647,152.188 151.053,152.793 152.654 C 153.873 155.515,154.290 156.154,154.559 155.364 C 154.618 155.192,154.993 154.204,155.393 153.168 C 155.792 152.132,156.223 150.976,156.349 150.599 C 156.754 149.387,156.883 149.315,158.653 149.315 C 160.907 149.315,160.906 149.312,159.456 152.568 C 159.268 152.992,158.590 154.572,157.950 156.079 C 157.310 157.586,156.659 159.050,156.504 159.332 L 156.221 159.846 154.161 159.894 C 151.726 159.950,151.990 160.162,150.774 157.177 C 150.336 156.102,149.871 154.987,149.740 154.699 C 148.126 151.155,147.616 149.702,147.888 149.429 C 148.099 149.218,151.118 149.304,151.413 149.529 M166.404 149.521 C 166.554 149.671,166.610 151.043,166.610 154.623 C 166.610 160.354,166.768 159.932,164.624 159.932 C 162.669 159.932,162.842 160.456,162.842 154.558 C 162.842 148.924,162.702 149.315,164.726 149.315 C 165.643 149.315,166.276 149.393,166.404 149.521 M311.945 149.529 C 312.150 149.786,312.344 157.340,312.184 158.818 L 312.072 159.846 310.274 159.846 L 308.476 159.846 308.428 154.966 C 308.367 148.751,308.193 149.315,310.171 149.315 C 311.247 149.315,311.829 149.385,311.945 149.529 M128.890 151.380 C 128.059 151.583,127.563 152.050,127.518 152.674 L 127.483 153.168 129.452 153.211 C 131.698 153.260,131.965 153.173,131.731 152.470 C 131.417 151.529,130.199 151.061,128.890 151.380 M187.234 151.382 C 186.321 151.647,185.486 152.930,186.077 153.157 C 186.692 153.392,190.078 153.258,190.179 152.993 C 190.600 151.895,188.820 150.921,187.234 151.382 M225.345 151.366 C 224.331 151.618,223.550 152.883,224.243 153.149 C 224.864 153.388,228.089 153.262,228.192 152.996 C 228.628 151.859,227.033 150.945,225.345 151.366 M291.548 151.375 C 290.515 151.684,289.727 152.991,290.463 153.174 C 291.667 153.474,294.434 153.175,294.477 152.740 C 294.580 151.676,293.000 150.940,291.548 151.375 M261.868 151.792 C 260.641 152.326,260.108 155.350,261.004 156.696 C 262.131 158.387,264.643 158.090,265.210 156.197 C 266.130 153.124,264.313 150.729,261.868 151.792 M277.193 151.774 C 275.187 152.330,274.473 155.278,275.933 156.975 C 276.446 157.572,278.355 157.673,279.160 157.145 L 279.623 156.841 279.623 154.560 C 279.623 151.653,279.236 151.208,277.193 151.774 M335.788 151.824 C 333.982 152.419,333.333 155.247,334.706 156.536 C 335.294 157.088,337.723 157.136,338.113 156.603 C 338.530 156.033,338.456 152.120,338.025 151.890 C 337.690 151.710,336.260 151.668,335.788 151.824 " stroke="none" fill="#fbfbfb" fill-rule="evenodd"></path></g></svg>