<svg id="svg" version="1.1" xmlns="http://www.w3.org/2000/svg" xmlns:xlink="http://www.w3.org/1999/xlink" width="400" height="168.22429906542055" viewBox="0, 0, 400,168.22429906542055"><g id="svgg"><path id="path0" d="M78.170 28.061 C 77.358 28.685,75.994 29.727,75.140 30.374 C 70.252 34.080,68.733 35.241,68.658 35.327 C 68.612 35.381,67.665 36.104,66.554 36.936 C 65.444 37.767,64.384 38.573,64.199 38.726 C 63.305 39.467,61.913 40.558,61.001 41.233 C 60.446 41.644,58.412 43.193,56.481 44.676 C 54.550 46.158,52.121 48.014,51.084 48.801 C 48.012 51.131,43.956 54.227,42.154 55.618 C 41.228 56.332,39.562 57.605,38.452 58.446 C 37.341 59.287,36.348 60.055,36.245 60.152 C 36.142 60.249,33.927 61.947,31.323 63.925 L 26.588 67.521 26.588 90.292 C 26.588 104.881,26.647 113.100,26.752 113.165 C 26.842 113.221,27.391 112.901,27.972 112.454 C 30.074 110.839,34.963 107.531,35.249 107.531 C 35.295 107.531,35.810 107.238,36.394 106.881 C 37.321 106.314,43.932 102.991,44.846 102.632 C 45.229 102.483,46.616 101.895,47.371 101.563 C 48.336 101.138,53.775 99.158,55.364 98.654 C 57.566 97.955,59.390 97.405,59.992 97.259 C 60.269 97.192,61.096 96.973,61.828 96.772 C 69.401 94.699,79.993 94.110,90.618 95.171 C 93.143 95.423,93.716 95.497,97.181 96.008 C 99.211 96.308,104.072 97.194,105.006 97.434 C 105.330 97.517,106.353 97.748,107.278 97.947 C 108.962 98.309,109.167 98.360,110.896 98.835 C 113.823 99.640,114.295 99.677,113.424 99.035 C 112.600 98.427,104.419 94.405,104.006 94.405 C 103.931 94.405,103.441 94.215,102.917 93.983 C 101.433 93.327,96.500 91.599,94.405 91.002 C 89.700 89.662,87.585 89.183,83.803 88.602 C 82.831 88.453,81.564 88.257,80.987 88.167 C 77.662 87.646,67.654 87.653,63.694 88.178 C 58.694 88.841,56.963 89.132,54.102 89.789 C 53.454 89.938,52.659 90.119,52.335 90.192 C 48.767 90.989,42.902 93.089,39.401 94.821 C 38.368 95.332,37.409 95.751,37.272 95.751 C 37.053 95.751,37.021 94.347,37.021 84.506 L 37.021 73.260 38.157 72.356 C 38.782 71.859,39.804 71.051,40.429 70.560 C 43.312 68.295,43.995 67.758,45.057 66.923 C 45.682 66.431,46.766 65.579,47.467 65.029 C 48.168 64.480,49.900 63.122,51.317 62.011 C 52.733 60.900,54.903 59.196,56.139 58.225 C 57.375 57.253,59.498 55.587,60.857 54.523 C 62.216 53.458,64.295 51.830,65.476 50.905 C 66.657 49.979,68.591 48.464,69.774 47.539 C 72.990 45.022,74.126 44.128,75.978 42.654 C 79.553 39.810,79.295 39.916,80.438 40.823 C 81.881 41.968,82.447 42.423,86.916 46.023 C 89.681 48.251,98.306 55.185,99.958 56.509 C 100.467 56.917,101.035 57.376,101.220 57.530 C 101.405 57.683,103.601 59.448,106.100 61.453 C 108.599 63.458,111.098 65.468,111.653 65.921 C 112.898 66.935,115.518 69.035,117.443 70.562 C 118.239 71.192,119.950 72.566,121.245 73.616 C 123.503 75.444,125.395 76.966,127.387 78.557 C 127.897 78.963,128.466 79.420,128.652 79.572 C 130.807 81.327,135.839 85.365,136.442 85.822 L 137.218 86.411 145.621 86.439 C 150.242 86.454,154.169 86.413,154.346 86.348 C 154.767 86.192,154.449 85.851,152.367 84.232 C 150.105 82.473,138.814 73.515,138.073 72.892 C 137.888 72.736,137.244 72.232,136.643 71.771 C 136.041 71.311,135.398 70.807,135.212 70.651 C 134.606 70.143,130.983 67.256,129.225 65.881 C 127.292 64.369,119.073 57.844,118.553 57.409 C 118.368 57.254,117.724 56.750,117.122 56.289 C 116.521 55.829,115.877 55.324,115.692 55.167 C 115.507 55.011,113.992 53.802,112.326 52.481 C 110.660 51.161,108.162 49.178,106.773 48.076 C 103.470 45.454,103.331 45.343,101.557 43.939 C 100.724 43.280,99.741 42.495,99.373 42.195 C 99.005 41.895,97.982 41.088,97.101 40.401 C 96.220 39.715,95.461 39.106,95.414 39.047 C 95.368 38.989,94.838 38.566,94.236 38.107 C 93.149 37.279,88.386 33.502,85.654 31.302 C 79.316 26.199,80.132 26.552,78.170 28.061 M157.453 34.609 C 156.924 35.139,157.512 37.358,158.181 37.358 C 158.304 37.358,158.791 37.467,159.262 37.599 C 159.733 37.732,160.610 37.968,161.212 38.124 C 163.050 38.601,163.393 38.722,163.653 38.982 C 164.072 39.401,164.029 82.469,163.610 82.819 C 163.448 82.955,162.709 83.203,161.969 83.372 C 160.570 83.691,159.253 84.037,158.098 84.389 L 157.425 84.595 157.453 85.732 C 157.467 86.358,157.555 86.945,157.647 87.037 C 157.903 87.293,200.414 87.274,200.894 87.017 C 201.354 86.771,201.280 87.327,201.750 80.606 C 201.856 79.079,202.018 77.223,202.108 76.483 C 202.519 73.110,202.397 72.780,200.832 73.035 C 199.151 73.308,199.377 73.068,197.186 76.904 C 196.683 77.783,196.218 78.616,196.152 78.755 C 196.086 78.894,195.940 79.159,195.827 79.344 C 194.973 80.743,194.363 81.823,194.363 81.935 C 194.363 82.614,194.188 82.625,183.877 82.625 L 174.007 82.625 173.915 82.247 C 173.865 82.038,173.845 77.514,173.870 72.192 L 173.917 62.516 180.564 62.516 C 189.060 62.516,187.846 61.949,189.317 66.599 C 189.950 68.599,189.908 68.571,191.923 68.371 L 193.269 68.237 193.313 60.118 L 193.356 51.998 192.019 51.998 C 190.624 51.998,189.858 52.181,189.742 52.543 C 189.704 52.660,189.324 53.872,188.898 55.236 C 187.945 58.282,188.888 57.972,180.564 57.972 L 173.917 57.972 173.870 48.885 C 173.845 43.887,173.865 39.628,173.915 39.419 L 174.007 39.041 183.402 39.041 L 192.797 39.041 193.072 39.672 C 193.224 40.019,193.840 41.821,194.443 43.677 C 195.837 47.972,195.682 47.763,197.237 47.449 L 198.464 47.202 198.762 45.940 C 198.926 45.246,199.184 44.110,199.336 43.416 C 199.488 42.722,199.676 41.889,199.756 41.565 C 199.835 41.241,200.020 40.408,200.168 39.714 C 200.315 39.020,200.542 37.997,200.673 37.442 C 201.125 35.517,201.137 35.345,200.852 34.911 L 200.581 34.497 179.073 34.497 C 167.244 34.497,157.515 34.548,157.453 34.609 M370.551 38.871 C 358.960 39.762,351.641 43.723,350.339 49.811 C 349.041 55.880,352.977 61.337,360.707 64.184 C 361.502 64.477,361.865 64.621,363.063 65.118 C 363.340 65.234,364.438 65.619,365.503 65.975 C 376.827 69.758,379.680 71.497,380.488 75.111 C 381.806 80.998,374.734 84.904,364.611 83.879 C 358.589 83.269,358.544 83.243,357.419 79.728 C 355.195 72.774,355.499 73.369,354.176 73.372 C 352.325 73.376,352.246 73.457,351.870 75.726 C 351.785 76.235,351.606 77.219,351.471 77.913 C 351.336 78.607,351.109 79.781,350.967 80.522 C 350.825 81.262,350.584 82.512,350.432 83.298 C 350.279 84.085,350.117 84.927,350.072 85.170 C 349.957 85.781,350.542 86.287,351.518 86.420 C 351.944 86.479,352.558 86.593,352.882 86.674 C 357.504 87.834,369.100 88.395,373.580 87.676 C 376.629 87.186,380.444 86.267,381.826 85.690 C 387.648 83.258,390.283 80.588,391.328 76.062 C 391.743 74.267,391.503 71.524,390.816 70.207 C 390.685 69.957,390.578 69.696,390.577 69.629 C 390.564 68.005,385.905 64.308,381.742 62.618 C 381.001 62.317,380.168 61.969,379.891 61.845 C 379.613 61.720,378.363 61.273,377.114 60.852 C 375.865 60.431,374.199 59.864,373.412 59.593 C 363.455 56.162,360.428 53.523,361.152 48.903 C 361.851 44.447,368.383 41.838,376.188 42.899 C 380.662 43.507,380.999 43.623,381.304 44.661 C 381.388 44.948,381.812 46.167,382.246 47.371 C 382.680 48.574,383.099 49.785,383.176 50.063 C 383.723 52.018,383.971 52.194,385.798 51.920 C 386.670 51.790,386.629 51.882,387.711 47.539 C 388.195 45.595,388.705 43.551,388.844 42.995 C 389.366 40.915,389.341 40.416,388.700 40.150 C 386.806 39.363,374.986 38.531,370.551 38.871 M317.291 39.050 C 316.920 39.127,316.277 39.195,315.860 39.202 C 314.596 39.222,314.407 39.339,313.682 40.560 C 313.306 41.191,313.000 41.750,313.000 41.802 C 313.000 41.853,312.697 42.391,312.326 42.995 C 311.956 43.600,311.653 44.122,311.653 44.156 C 311.653 44.189,311.323 44.813,310.918 45.541 C 309.630 47.863,309.306 48.448,308.904 49.180 C 308.688 49.573,308.261 50.349,307.955 50.905 C 307.650 51.460,307.171 52.331,306.892 52.840 C 306.612 53.349,306.206 54.048,305.989 54.393 C 305.773 54.738,305.595 55.051,305.595 55.088 C 305.595 55.149,304.673 56.839,303.745 58.477 C 302.585 60.525,300.883 63.632,300.883 63.703 C 300.883 63.748,300.688 64.094,300.450 64.471 C 300.032 65.133,296.859 70.835,296.622 71.350 C 296.558 71.489,296.367 71.830,296.198 72.108 C 295.713 72.905,294.852 74.457,293.400 77.156 C 290.351 82.820,290.074 83.087,286.411 83.893 C 283.369 84.563,283.044 84.688,283.053 85.188 C 283.063 85.713,283.318 86.992,283.436 87.110 C 283.585 87.259,303.162 87.237,303.403 87.088 C 303.641 86.941,303.501 85.044,303.229 84.716 C 303.144 84.614,302.639 84.435,302.106 84.317 C 298.105 83.434,297.686 83.290,297.686 82.797 C 297.686 82.521,300.445 76.968,303.183 71.730 L 303.997 70.174 314.109 70.173 C 324.769 70.172,324.779 70.173,324.779 70.886 C 324.779 70.941,325.148 71.768,325.600 72.724 C 326.550 74.738,327.274 76.301,327.811 77.493 C 328.019 77.955,328.473 78.941,328.820 79.682 C 330.454 83.177,330.415 83.339,327.808 83.884 C 327.021 84.049,325.923 84.310,325.368 84.465 L 324.358 84.746 324.309 85.663 C 324.218 87.370,323.071 87.222,336.270 87.211 C 348.862 87.201,348.170 87.252,348.170 86.338 C 348.170 84.581,348.471 84.779,344.384 83.854 C 340.715 83.024,341.255 83.793,334.708 70.088 C 334.178 68.978,333.175 66.895,332.479 65.461 C 331.783 64.026,330.872 62.133,330.455 61.254 C 330.038 60.374,329.111 58.443,328.395 56.963 C 327.029 54.139,325.487 50.933,324.064 47.960 C 323.599 46.988,322.509 44.725,321.643 42.930 C 320.776 41.136,320.067 39.614,320.067 39.549 C 320.067 38.959,318.818 38.735,317.291 39.050 M209.467 39.847 C 209.345 39.994,209.336 40.372,209.439 41.021 C 209.615 42.125,209.872 42.280,212.453 42.839 C 215.348 43.466,215.785 43.634,215.934 44.179 C 216.109 44.821,216.110 82.044,215.934 82.694 C 215.790 83.228,215.622 83.295,212.958 83.877 C 210.284 84.461,209.526 84.691,209.427 84.948 C 209.305 85.268,209.641 86.959,209.853 87.090 C 210.351 87.398,253.465 87.207,253.768 86.896 C 254.019 86.638,254.110 86.111,254.259 84.056 C 254.628 78.971,254.927 75.392,255.031 74.840 C 255.188 74.005,254.890 73.836,253.510 73.978 C 252.064 74.126,251.937 74.243,250.107 77.111 C 249.296 78.381,248.148 80.182,247.554 81.111 C 246.227 83.191,247.577 82.979,236.019 82.924 L 226.267 82.878 226.128 82.211 C 225.892 81.076,226.046 43.975,226.288 43.733 C 226.478 43.543,228.966 42.893,230.723 42.575 C 231.146 42.499,231.775 42.318,232.122 42.173 L 232.752 41.910 232.634 41.106 C 232.393 39.470,233.796 39.647,220.962 39.638 C 211.921 39.631,209.612 39.673,209.467 39.847 M259.384 39.942 C 259.329 40.114,259.334 40.656,259.396 41.146 C 259.525 42.179,259.524 42.179,261.927 42.742 C 265.118 43.489,265.450 43.586,265.704 43.840 C 266.061 44.197,266.108 82.571,265.752 82.999 C 265.529 83.268,265.012 83.424,262.768 83.901 C 260.625 84.358,259.600 84.632,259.439 84.793 C 259.224 85.009,259.480 86.786,259.761 87.018 C 259.942 87.169,280.699 87.316,282.415 87.179 C 282.595 87.164,282.571 85.587,282.383 85.091 C 282.213 84.644,281.769 84.484,279.091 83.897 C 276.800 83.395,276.288 83.226,276.122 82.917 C 275.949 82.592,275.908 44.681,276.080 43.993 C 276.135 43.775,276.305 43.564,276.458 43.524 C 276.803 43.435,277.867 43.188,279.512 42.816 C 280.206 42.659,281.181 42.422,281.678 42.290 L 282.582 42.048 282.466 41.007 C 282.402 40.435,282.278 39.893,282.189 39.803 C 281.842 39.449,259.497 39.586,259.384 39.942 M315.114 50.488 C 315.244 50.717,315.721 51.700,316.174 52.671 C 316.628 53.643,317.358 55.196,317.797 56.121 C 318.704 58.035,319.606 59.959,320.400 61.674 C 320.700 62.322,321.202 63.390,321.516 64.048 C 322.441 65.986,323.213 65.797,314.346 65.797 C 307.552 65.797,306.605 65.766,306.605 65.543 C 306.605 65.316,308.876 60.778,309.635 59.487 C 309.891 59.052,311.209 56.510,313.889 51.277 C 314.595 49.900,314.730 49.813,315.114 50.488 M165.082 94.734 C 159.396 96.286,156.413 100.992,156.436 108.372 C 156.449 112.485,156.945 114.448,158.649 117.122 C 161.460 121.534,167.315 122.983,171.897 120.403 C 173.006 119.779,173.834 119.073,173.830 118.756 C 173.820 117.865,173.417 117.533,172.695 117.820 C 165.942 120.507,161.003 116.989,160.378 109.045 C 159.784 101.489,162.809 96.521,167.836 96.795 C 170.213 96.925,170.252 96.977,171.067 101.136 C 171.240 102.018,172.116 102.333,172.484 101.645 C 172.753 101.143,173.495 96.037,173.370 95.557 C 173.119 94.599,167.587 94.050,165.082 94.734 M347.988 97.890 C 347.797 98.394,348.246 99.015,348.925 99.185 C 349.137 99.238,349.362 99.415,349.426 99.578 C 349.561 99.926,349.550 118.783,349.415 119.002 C 349.364 119.084,349.044 119.282,348.704 119.442 C 348.166 119.696,348.086 119.809,348.086 120.321 L 348.086 120.909 351.157 120.955 L 354.228 121.000 354.228 120.424 C 354.228 119.920,354.134 119.792,353.490 119.415 C 352.480 118.822,352.539 119.472,352.548 109.103 C 352.557 98.723,352.459 99.582,353.708 98.908 C 354.172 98.657,354.242 98.536,354.197 98.066 L 354.144 97.518 351.149 97.486 L 348.154 97.455 347.988 97.890 M181.654 100.959 C 173.092 102.807,172.426 118.636,180.804 121.184 C 188.254 123.450,193.762 116.202,191.695 106.855 C 190.749 102.579,186.287 99.959,181.654 100.959 M312.524 100.968 C 308.775 101.765,306.332 105.084,305.960 109.886 C 305.400 117.118,308.532 121.497,314.262 121.495 C 319.743 121.493,322.967 117.497,322.949 110.728 C 322.930 103.556,318.750 99.643,312.524 100.968 M214.893 101.267 C 212.189 102.302,211.156 103.732,211.139 106.468 C 211.121 109.354,212.113 110.666,215.818 112.658 C 218.564 114.135,219.297 115.355,218.747 117.536 C 218.427 118.809,217.339 119.490,215.667 119.466 C 213.806 119.438,213.425 119.028,213.124 116.731 C 212.782 114.122,211.726 114.509,211.368 117.375 C 210.944 120.762,211.183 121.048,214.629 121.274 C 219.453 121.591,222.039 119.584,222.040 115.524 C 222.040 112.799,221.243 111.585,218.439 110.046 C 214.930 108.119,214.472 107.608,214.472 105.622 C 214.472 103.502,215.178 102.819,217.368 102.819 C 218.837 102.819,218.987 102.946,219.349 104.501 C 219.793 106.405,219.870 106.552,220.396 106.490 C 220.890 106.432,220.918 106.362,221.279 104.249 C 221.680 101.904,221.638 101.602,220.867 101.322 C 219.804 100.935,215.855 100.899,214.893 101.267 M274.968 101.291 C 266.235 104.058,266.130 118.747,274.826 121.226 C 277.983 122.126,282.728 120.530,282.274 118.721 C 282.183 118.359,282.092 118.294,281.804 118.382 C 275.865 120.205,272.597 118.245,271.757 112.359 C 271.015 107.160,273.561 102.815,277.345 102.818 C 279.289 102.820,279.637 103.102,279.937 104.922 C 280.354 107.458,281.380 107.348,281.778 104.724 C 281.902 103.907,282.057 103.031,282.122 102.777 C 282.366 101.825,282.143 101.544,280.903 101.243 C 279.356 100.868,276.226 100.893,274.968 101.291 M379.782 101.297 C 374.603 102.925,372.107 108.630,373.744 115.096 C 375.200 120.847,382.382 123.512,386.679 119.896 C 387.402 119.287,387.265 117.935,386.526 118.392 C 386.419 118.458,385.791 118.652,385.130 118.824 C 379.575 120.267,376.013 116.284,376.611 109.297 C 376.968 105.126,379.149 102.717,382.451 102.848 C 384.333 102.923,384.279 102.853,385.087 106.226 C 385.209 106.738,385.837 106.875,386.177 106.466 C 386.425 106.167,386.768 104.005,386.780 102.661 L 386.790 101.578 385.780 101.275 C 384.402 100.862,381.129 100.874,379.782 101.297 M239.941 101.262 C 236.700 101.324,235.987 101.839,237.899 102.737 C 238.825 103.173,238.783 102.763,238.786 111.284 L 238.788 119.161 238.038 119.493 C 237.156 119.883,237.039 120.031,237.177 120.582 L 237.280 120.993 240.317 120.993 L 243.353 120.993 243.301 120.446 C 243.258 120.001,243.130 119.844,242.611 119.601 C 241.657 119.153,241.368 117.005,241.758 113.268 L 241.867 112.225 242.389 112.276 C 242.889 112.324,242.989 112.480,244.762 115.998 C 247.220 120.871,247.507 121.161,249.874 121.161 C 251.897 121.161,252.481 120.278,250.914 119.587 C 249.934 119.154,249.481 118.509,247.659 114.946 C 245.771 111.252,245.858 111.567,246.617 111.158 C 250.072 109.298,250.317 103.501,247.012 101.801 C 246.277 101.422,244.570 101.125,243.416 101.175 C 242.953 101.195,241.390 101.234,239.941 101.262 M193.445 101.617 C 193.285 102.120,193.503 102.438,194.199 102.717 C 195.225 103.127,195.204 102.947,195.204 111.280 C 195.204 119.720,195.259 119.291,194.139 119.571 C 193.637 119.696,193.350 120.187,193.482 120.692 C 193.601 121.147,198.660 121.153,198.769 120.698 C 198.907 120.122,198.704 119.816,197.969 119.490 L 197.223 119.161 197.223 113.177 C 197.223 109.886,197.281 107.194,197.351 107.194 C 197.473 107.194,198.795 109.078,200.421 111.568 C 206.276 120.536,206.841 121.260,207.785 121.008 L 208.246 120.885 208.335 111.978 C 208.384 107.079,208.441 103.058,208.461 103.042 C 208.482 103.026,208.754 102.929,209.067 102.825 C 209.853 102.566,210.182 102.161,209.998 101.678 C 209.854 101.300,209.821 101.296,207.282 101.342 L 204.712 101.388 204.712 101.893 C 204.712 102.321,204.818 102.448,205.416 102.725 C 206.336 103.153,206.306 102.938,206.308 108.925 C 206.311 115.471,206.963 115.679,201.423 107.362 C 199.913 105.095,198.385 102.804,198.029 102.272 L 197.381 101.304 195.462 101.304 C 193.740 101.304,193.534 101.336,193.445 101.617 M221.996 101.515 C 221.798 101.754,222.057 105.805,222.313 106.479 C 222.715 107.536,223.333 106.758,224.054 104.285 L 224.337 103.312 225.968 103.360 L 227.598 103.408 227.598 111.233 L 227.598 119.058 226.728 119.459 C 225.870 119.855,225.669 120.121,225.792 120.698 C 225.883 121.123,232.511 121.153,232.674 120.730 C 232.857 120.251,232.458 119.719,231.759 119.510 C 230.655 119.179,230.703 119.578,230.751 111.129 L 230.795 103.408 232.380 103.408 L 233.964 103.408 234.276 104.754 C 234.447 105.494,234.625 106.271,234.672 106.479 C 234.721 106.699,234.882 106.857,235.057 106.857 C 235.660 106.857,235.894 106.457,236.094 105.090 C 236.524 102.140,236.567 101.748,236.483 101.531 C 236.360 101.210,222.261 101.194,221.996 101.515 M250.848 101.416 C 250.431 101.833,251.113 102.819,251.818 102.819 C 252.358 102.819,252.419 103.451,252.419 109.063 C 252.419 119.163,253.661 121.498,259.034 121.498 C 262.257 121.498,263.961 120.261,265.177 117.038 C 265.549 116.055,265.713 113.625,265.713 109.115 C 265.713 103.200,265.722 103.137,266.615 102.722 C 267.205 102.448,267.312 102.321,267.312 101.893 L 267.312 101.388 264.685 101.342 C 261.442 101.285,260.672 101.764,262.528 102.684 C 263.579 103.204,263.525 102.877,263.525 108.806 C 263.525 117.158,263.004 118.836,260.285 119.232 C 258.038 119.559,256.509 118.734,255.869 116.850 C 255.416 115.518,255.341 103.204,255.785 102.983 C 255.923 102.914,256.244 102.761,256.497 102.643 C 256.998 102.409,257.198 102.012,257.033 101.580 C 256.923 101.294,251.124 101.141,250.848 101.416 M282.882 101.551 C 282.691 101.782,282.870 105.222,283.139 106.479 C 283.398 107.687,284.160 106.804,284.844 104.501 L 285.168 103.408 286.758 103.408 L 288.347 103.408 288.390 111.258 L 288.434 119.108 287.499 119.496 C 286.627 119.857,286.567 119.918,286.614 120.396 L 286.664 120.909 290.029 120.909 L 293.395 120.909 293.395 120.340 C 293.395 119.808,293.342 119.754,292.580 119.511 C 292.001 119.326,291.720 119.131,291.608 118.836 C 291.443 118.402,291.414 104.611,291.576 103.786 L 291.667 103.324 293.232 103.324 L 294.797 103.324 295.076 104.628 C 295.502 106.617,295.561 106.770,295.923 106.816 C 296.663 106.912,296.738 106.695,297.182 103.165 C 297.280 102.383,297.323 101.645,297.276 101.524 C 297.143 101.177,283.171 101.204,282.882 101.551 M298.027 101.552 C 297.720 101.922,298.188 102.568,298.944 102.817 L 299.540 103.014 299.497 111.120 L 299.453 119.226 298.730 119.562 C 298.088 119.860,298.013 119.953,298.057 120.403 L 298.107 120.909 301.136 120.909 L 304.165 120.909 304.165 120.330 C 304.165 119.824,304.100 119.735,303.639 119.616 C 302.625 119.353,302.655 119.580,302.598 111.670 C 302.536 102.938,302.514 103.165,303.455 102.728 C 304.058 102.448,304.165 102.322,304.165 101.893 L 304.165 101.388 301.202 101.342 C 298.719 101.304,298.204 101.338,298.027 101.552 M324.386 101.416 C 324.016 101.787,324.303 102.345,325.029 102.667 C 326.161 103.167,326.125 102.890,326.125 111.149 C 326.125 119.309,326.147 119.130,325.125 119.539 C 324.457 119.806,324.097 120.401,324.353 120.815 C 324.577 121.178,329.452 121.043,329.653 120.668 C 329.909 120.190,329.720 119.890,328.978 119.598 C 327.959 119.198,327.943 119.081,328.041 112.856 C 328.119 107.845,328.170 106.986,328.379 107.208 C 328.525 107.364,330.837 110.754,330.837 110.813 C 330.837 110.848,331.254 111.486,331.763 112.232 C 332.272 112.978,333.095 114.185,333.593 114.914 C 334.091 115.644,334.526 116.306,334.561 116.387 C 334.844 117.047,337.643 120.972,337.868 121.025 C 338.027 121.063,338.385 121.051,338.662 121.000 L 339.167 120.906 339.251 112.002 C 339.307 106.054,339.393 103.080,339.511 103.041 C 340.351 102.761,340.850 102.326,340.850 101.873 L 340.850 101.388 338.241 101.388 L 335.633 101.388 335.633 101.893 C 335.633 102.304,335.743 102.451,336.222 102.684 C 337.286 103.199,337.232 102.877,337.232 108.699 C 337.232 114.764,337.220 114.807,336.054 112.964 C 335.730 112.452,334.722 110.925,333.814 109.571 C 332.905 108.218,331.292 105.804,330.229 104.207 L 328.295 101.304 326.397 101.304 C 325.353 101.304,324.448 101.355,324.386 101.416 M355.639 101.547 C 355.464 102.002,355.658 102.359,356.247 102.665 C 356.571 102.833,356.931 103.053,357.047 103.154 C 357.209 103.295,357.257 105.105,357.257 111.129 C 357.257 119.804,357.334 119.234,356.101 119.664 C 355.623 119.831,355.562 119.920,355.607 120.381 L 355.658 120.909 358.212 120.955 C 360.634 120.999,360.771 120.984,360.872 120.667 C 360.998 120.269,360.703 119.647,360.387 119.647 C 360.264 119.647,359.964 119.490,359.720 119.298 L 359.276 118.949 359.279 113.282 C 359.281 108.410,359.379 106.807,359.649 107.199 C 359.679 107.242,361.736 110.324,364.220 114.046 C 369.300 121.658,368.992 121.273,369.844 121.063 L 370.467 120.909 370.551 112.008 C 370.624 104.321,370.670 103.091,370.888 102.983 C 371.027 102.914,371.344 102.763,371.594 102.646 C 372.139 102.392,372.236 102.186,372.047 101.678 C 371.907 101.300,371.871 101.296,369.419 101.342 L 366.933 101.388 366.933 101.893 C 366.933 102.300,367.045 102.454,367.512 102.687 C 368.350 103.105,368.334 103.003,368.364 107.954 C 368.402 113.941,368.402 113.925,368.153 113.924 C 368.037 113.923,366.317 111.481,364.330 108.497 C 362.342 105.513,360.428 102.674,360.075 102.188 L 359.434 101.304 357.583 101.304 C 356.126 101.304,355.712 101.356,355.639 101.547 M184.927 102.832 C 187.536 103.391,188.822 106.193,188.821 111.317 C 188.819 117.185,187.332 119.607,183.714 119.637 C 180.124 119.667,178.191 116.552,178.198 110.753 C 178.203 106.805,178.985 104.645,180.943 103.167 C 181.596 102.674,183.461 102.517,184.927 102.832 M316.626 103.119 C 319.021 104.351,320.106 107.880,319.699 113.115 C 319.342 117.709,317.813 119.650,314.553 119.645 C 310.297 119.639,308.108 114.349,309.408 107.212 C 310.094 103.449,313.505 101.514,316.626 103.119 M244.337 103.294 C 247.415 104.473,246.541 110.006,243.227 110.316 C 241.715 110.458,241.759 110.559,241.706 106.835 C 241.647 102.748,241.927 102.370,244.337 103.294 M389.618 117.865 C 388.438 118.880,389.190 121.329,390.681 121.329 C 391.776 121.329,392.427 120.607,392.427 119.391 C 392.427 117.742,390.793 116.854,389.618 117.865 M5.621 134.688 C 5.572 134.817,5.556 135.252,5.585 135.656 L 5.637 136.390 198.233 136.390 L 390.829 136.390 390.829 135.465 L 390.829 134.539 198.270 134.497 C 34.271 134.461,5.698 134.490,5.621 134.688 " stroke="none" fill="#003d7e" fill-rule="evenodd"></path><path id="path1" d="M78.923 7.159 C 78.044 7.853,76.908 8.736,76.399 9.121 C 75.890 9.507,75.133 10.099,74.716 10.436 C 74.300 10.773,73.386 11.497,72.686 12.045 C 69.487 14.549,68.629 15.224,66.987 16.528 C 64.905 18.182,60.702 21.468,58.814 22.920 C 57.539 23.899,55.946 25.155,51.493 28.693 C 50.429 29.538,48.952 30.692,48.212 31.257 C 47.472 31.821,46.066 32.914,45.087 33.685 C 44.109 34.456,42.633 35.613,41.806 36.256 C 40.979 36.900,39.388 38.150,38.270 39.033 C 37.153 39.917,35.604 41.132,34.830 41.733 C 32.914 43.222,28.338 46.836,27.526 47.502 C 27.162 47.800,26.511 48.309,26.078 48.633 C 25.645 48.957,24.476 49.865,23.480 50.652 C 22.485 51.439,21.263 52.394,20.764 52.775 C 20.266 53.156,19.574 53.698,19.226 53.979 C 18.540 54.533,17.063 55.694,13.718 58.309 C 10.529 60.802,6.403 64.059,5.648 64.680 C 4.279 65.806,4.219 65.797,13.078 65.797 C 22.197 65.796,20.862 66.076,24.086 63.489 C 25.214 62.584,26.678 61.426,27.339 60.917 C 28.000 60.408,29.181 59.485,29.963 58.866 C 30.744 58.247,32.028 57.240,32.814 56.627 C 33.601 56.015,34.851 55.022,35.591 54.420 C 36.744 53.484,39.413 51.366,43.500 48.143 C 44.443 47.400,46.440 45.821,51.998 41.426 C 53.247 40.438,54.345 39.573,54.438 39.503 C 54.847 39.196,60.129 35.023,64.367 31.659 C 67.760 28.965,68.217 28.604,73.454 24.480 C 75.675 22.730,77.943 20.937,78.494 20.494 C 79.965 19.311,79.806 19.257,83.290 22.129 C 83.964 22.684,84.950 23.479,85.482 23.896 C 86.014 24.312,87.189 25.259,88.092 25.999 C 88.995 26.740,90.008 27.557,90.344 27.816 C 90.680 28.075,91.110 28.420,91.299 28.584 C 91.489 28.748,92.738 29.763,94.076 30.840 C 96.708 32.959,98.476 34.390,99.537 35.260 C 99.907 35.563,100.968 36.417,101.893 37.156 C 103.959 38.808,105.443 40.011,106.794 41.131 C 107.360 41.601,108.458 42.488,109.234 43.101 C 110.009 43.715,111.666 45.044,112.915 46.055 C 114.165 47.066,116.475 48.936,118.048 50.209 C 119.621 51.482,121.136 52.712,121.414 52.940 C 121.965 53.394,125.533 56.258,127.119 57.519 C 127.665 57.953,128.461 58.615,128.886 58.989 C 129.311 59.364,129.822 59.780,130.020 59.915 C 130.218 60.050,130.851 60.530,131.426 60.983 C 132.827 62.086,132.767 62.359,132.770 54.888 L 132.772 48.439 132.300 47.989 C 132.041 47.741,131.227 47.049,130.491 46.451 C 129.756 45.852,128.284 44.639,127.219 43.755 C 126.155 42.871,124.943 41.887,124.527 41.569 C 124.110 41.250,123.195 40.494,122.493 39.889 C 121.791 39.284,120.699 38.372,120.067 37.863 C 118.589 36.672,117.384 35.676,116.513 34.924 C 116.131 34.594,115.449 34.045,114.998 33.703 C 114.547 33.361,114.102 32.996,114.009 32.891 C 113.917 32.787,113.047 32.064,112.076 31.285 C 111.105 30.507,109.587 29.264,108.704 28.523 C 107.821 27.783,106.728 26.874,106.276 26.504 C 105.824 26.134,105.138 25.566,104.751 25.242 C 104.365 24.918,103.344 24.085,102.482 23.391 C 101.620 22.697,100.570 21.835,100.148 21.475 C 99.152 20.627,95.383 17.542,94.669 16.990 C 94.365 16.755,93.746 16.250,93.293 15.867 C 91.917 14.706,89.996 13.113,88.259 11.695 C 87.352 10.955,85.884 9.739,84.996 8.993 C 82.716 7.076,81.105 5.889,80.791 5.894 C 80.643 5.897,79.802 6.466,78.923 7.159 M374.968 38.820 C 375.130 38.863,375.395 38.863,375.557 38.820 C 375.719 38.778,375.587 38.743,375.263 38.743 C 374.939 38.743,374.806 38.778,374.968 38.820 M69.365 58.169 C 68.553 58.283,68.490 58.623,68.490 62.831 C 68.490 67.676,67.900 67.160,73.370 67.104 L 77.829 67.059 77.874 62.780 C 77.904 59.984,77.859 58.439,77.744 58.325 C 77.567 58.147,70.461 58.015,69.365 58.169 M82.120 58.270 L 81.700 58.487 81.655 62.584 C 81.623 65.465,81.666 66.750,81.801 66.912 C 82.069 67.235,90.839 67.255,90.962 66.933 C 91.154 66.427,91.125 58.682,90.930 58.414 C 90.660 58.045,82.804 57.916,82.120 58.270 M68.655 71.106 C 68.406 71.760,68.439 79.142,68.692 79.394 C 68.926 79.628,77.344 79.685,77.706 79.456 C 77.871 79.351,77.909 78.352,77.874 75.041 L 77.829 70.761 73.325 70.717 L 68.820 70.672 68.655 71.106 M81.790 71.003 C 81.506 71.532,81.558 79.171,81.846 79.410 C 82.010 79.545,83.382 79.589,86.516 79.557 L 90.955 79.512 91.074 75.894 C 91.139 73.904,91.151 71.916,91.100 71.477 L 91.008 70.677 86.486 70.677 C 82.187 70.677,81.955 70.693,81.790 71.003 M121.432 81.209 C 121.375 81.355,121.329 87.264,121.329 94.340 C 121.329 106.098,121.306 107.214,121.054 107.310 C 120.888 107.374,119.972 107.011,118.740 106.393 C 115.795 104.915,112.071 103.404,109.718 102.730 C 109.302 102.611,108.279 102.311,107.446 102.064 C 97.509 99.118,82.204 98.100,73.286 99.792 C 72.823 99.880,71.801 100.069,71.014 100.214 C 66.687 101.008,60.113 103.057,56.453 104.754 C 50.786 107.380,47.687 109.089,44.804 111.174 C 43.986 111.766,44.446 111.869,45.772 111.391 C 47.619 110.725,51.161 109.583,52.756 109.140 C 53.311 108.986,54.134 108.750,54.584 108.616 C 55.034 108.482,55.547 108.372,55.723 108.372 C 55.899 108.372,56.591 108.225,57.260 108.046 C 57.929 107.867,59.462 107.564,60.665 107.373 C 61.868 107.182,63.307 106.948,63.862 106.853 C 67.699 106.200,77.282 105.975,81.550 106.438 C 86.544 106.980,89.523 107.555,94.657 108.969 C 95.212 109.122,96.045 109.347,96.508 109.469 C 98.453 109.982,98.964 110.131,101.977 111.068 C 108.235 113.013,115.946 115.722,119.226 117.126 C 119.411 117.205,120.471 117.647,121.582 118.107 C 123.992 119.106,125.656 119.873,129.548 121.778 C 131.153 122.564,132.516 123.156,132.577 123.095 C 132.713 122.959,132.825 89.315,132.692 88.579 C 132.607 88.108,132.116 87.734,127.944 84.961 C 121.560 80.717,121.609 80.745,121.432 81.209 M279.512 143.337 C 278.736 143.465,278.671 143.639,278.671 145.588 C 278.671 147.620,278.577 147.792,277.670 147.416 C 275.932 146.697,272.883 147.439,271.560 148.904 C 269.666 151.001,269.824 155.518,271.855 157.306 C 273.302 158.579,275.023 158.823,277.178 158.060 C 278.412 157.623,278.490 157.614,278.796 157.891 C 279.251 158.303,282.451 158.324,282.607 157.916 C 282.754 157.534,282.728 143.831,282.581 143.609 C 282.451 143.415,280.235 143.218,279.512 143.337 M83.664 143.521 C 83.414 143.679,83.281 157.579,83.526 157.975 C 83.701 158.258,86.853 158.263,87.135 157.981 C 87.482 157.634,87.420 143.610,87.071 143.476 C 86.671 143.323,83.920 143.358,83.664 143.521 M90.905 143.576 C 90.614 143.866,90.614 157.690,90.905 157.981 C 91.196 158.272,94.136 158.254,94.381 157.959 C 94.578 157.721,94.680 143.851,94.486 143.538 C 94.336 143.295,91.151 143.329,90.905 143.576 M160.106 143.598 C 160.056 143.727,160.038 144.278,160.067 144.823 L 160.118 145.814 161.716 145.917 C 163.996 146.065,164.100 146.005,164.038 144.595 L 163.988 143.458 162.092 143.411 C 160.592 143.373,160.177 143.412,160.106 143.598 M300.749 143.576 C 300.459 143.866,300.459 157.690,300.749 157.981 C 300.876 158.108,301.515 158.183,302.482 158.183 C 303.449 158.183,304.088 158.108,304.215 157.981 C 304.562 157.634,304.500 143.610,304.151 143.476 C 303.655 143.286,300.960 143.365,300.749 143.576 M308.021 143.603 C 307.973 143.729,307.956 144.278,307.984 144.823 L 308.035 145.814 309.800 145.862 C 311.313 145.904,311.595 145.869,311.777 145.620 C 312.047 145.251,312.055 143.843,311.788 143.576 C 311.486 143.274,308.138 143.299,308.021 143.603 M109.759 143.897 C 106.107 144.506,104.114 147.376,105.485 150.052 C 106.234 151.512,107.244 151.972,112.074 153.054 C 113.415 153.355,114.095 153.803,114.091 154.384 C 114.078 156.055,109.809 156.139,106.554 154.533 C 105.114 153.822,105.014 153.866,104.890 155.260 C 104.710 157.286,105.058 157.637,107.783 158.174 C 113.639 159.330,118.289 157.411,118.361 153.808 C 118.412 151.274,116.921 150.120,112.495 149.269 C 109.733 148.738,109.039 148.283,109.547 147.335 C 110.217 146.081,113.633 146.134,116.399 147.441 C 117.292 147.863,117.525 147.917,117.644 147.728 C 117.823 147.445,117.839 145.050,117.663 144.773 C 117.171 143.999,112.352 143.465,109.759 143.897 M54.394 144.019 C 54.228 144.124,54.192 145.660,54.226 151.126 L 54.270 158.098 56.012 158.147 C 58.329 158.211,58.225 158.341,58.225 155.374 C 58.225 152.064,57.994 152.296,61.302 152.276 C 65.026 152.253,64.872 152.318,64.872 150.771 L 64.872 149.516 61.719 149.470 L 58.566 149.425 58.444 148.966 C 58.276 148.334,58.279 147.134,58.449 146.964 C 58.525 146.887,60.116 146.786,61.982 146.740 L 65.377 146.655 65.427 145.408 C 65.462 144.524,65.413 144.121,65.258 144.022 C 64.977 143.844,54.675 143.840,54.394 144.019 M202.482 143.979 C 202.240 144.089,202.172 157.596,202.411 157.973 C 202.610 158.286,205.835 158.339,206.202 158.035 C 206.433 157.843,206.479 157.440,206.479 155.587 C 206.479 153.152,206.546 152.966,207.419 152.966 C 208.106 152.966,208.261 153.111,210.420 155.770 C 212.517 158.352,212.208 158.173,214.605 158.193 C 217.648 158.218,217.622 158.365,215.103 155.414 C 212.165 151.971,212.256 152.229,213.648 151.271 C 216.255 149.478,215.792 145.802,212.789 144.452 C 211.806 144.010,203.271 143.618,202.482 143.979 M210.302 147.077 C 212.051 148.212,210.630 150.259,207.986 150.412 C 206.523 150.497,206.452 150.400,206.514 148.397 L 206.563 146.824 207.152 146.740 C 208.057 146.610,209.885 146.806,210.302 147.077 M125.452 147.184 C 121.489 147.619,119.159 151.171,120.417 154.862 C 121.395 157.734,125.804 159.246,130.308 158.254 C 132.289 157.818,132.343 157.771,132.402 156.437 C 132.468 154.921,132.313 154.737,131.322 155.162 C 128.568 156.343,125.789 156.186,124.609 154.784 C 123.619 153.607,123.759 153.560,128.437 153.510 L 132.599 153.465 132.705 153.044 C 133.611 149.433,130.186 146.666,125.452 147.184 M172.402 147.270 C 168.607 147.623,166.760 149.423,166.736 152.791 C 166.709 156.544,169.541 158.727,174.120 158.482 C 177.213 158.317,177.871 157.862,177.871 155.892 C 177.871 154.698,177.525 154.480,176.614 155.099 C 173.573 157.165,169.977 155.288,170.803 152.064 C 171.425 149.634,174.021 148.952,176.564 150.552 C 177.358 151.052,177.505 151.047,177.707 150.515 C 177.888 150.040,177.928 148.598,177.773 148.193 C 177.521 147.537,174.714 147.055,172.402 147.270 M184.344 147.243 C 178.914 148.041,177.464 155.170,182.238 157.589 C 184.049 158.507,187.270 158.763,189.800 158.191 C 191.596 157.785,191.755 157.626,191.751 156.246 C 191.747 154.839,191.607 154.711,190.562 155.162 C 188.240 156.163,186.446 156.272,184.880 155.507 C 183.934 155.044,183.353 154.255,183.608 153.778 C 183.760 153.494,184.065 153.471,187.624 153.471 C 192.269 153.471,192.007 153.544,192.007 152.248 C 192.007 149.797,191.054 148.367,188.809 147.443 C 188.251 147.214,185.409 147.086,184.344 147.243 M223.223 147.183 C 217.612 148.058,216.090 155.211,220.998 157.638 C 222.685 158.472,225.784 158.739,228.152 158.253 C 230.368 157.799,230.615 157.529,230.395 155.794 C 230.264 154.752,230.359 154.765,228.271 155.494 C 225.728 156.381,223.459 156.052,222.511 154.657 C 221.743 153.527,221.928 153.471,226.392 153.471 C 230.835 153.471,230.711 153.509,230.711 152.152 C 230.711 148.530,227.643 146.494,223.223 147.183 M260.243 147.238 C 256.332 147.686,254.134 151.900,255.913 155.540 C 257.725 159.245,265.003 159.661,267.335 156.192 C 268.246 154.836,268.295 154.662,268.298 152.798 C 268.305 148.589,265.478 146.638,260.243 147.238 M290.366 147.183 C 284.888 148.044,283.334 155.231,288.120 157.572 C 290.458 158.716,295.037 158.824,297.181 157.786 C 297.866 157.455,297.901 154.622,297.216 154.905 C 293.522 156.436,290.486 156.298,289.658 154.562 C 289.140 153.476,289.160 153.471,293.485 153.471 C 297.801 153.471,298.023 153.426,298.023 152.548 C 298.023 148.659,294.900 146.471,290.366 147.183 M322.087 147.235 C 321.763 147.303,321.195 147.491,320.825 147.653 C 319.373 148.287,319.401 148.284,319.194 147.831 C 318.977 147.353,315.996 147.176,315.557 147.615 C 315.269 147.903,315.269 157.692,315.557 157.981 C 315.831 158.255,318.750 158.255,319.024 157.981 C 319.168 157.837,319.226 156.776,319.226 154.276 L 319.226 150.773 319.773 150.440 C 320.378 150.071,322.035 149.975,322.599 150.277 C 323.259 150.630,323.346 151.089,323.433 154.649 L 323.517 158.098 325.244 158.146 L 326.971 158.194 327.152 157.726 C 327.268 157.423,327.313 155.874,327.276 153.359 L 327.219 149.461 326.707 148.731 C 325.873 147.544,323.806 146.874,322.087 147.235 M238.576 147.708 L 237.606 148.140 237.219 147.776 C 236.766 147.351,233.826 147.225,233.437 147.615 C 233.149 147.903,233.149 157.692,233.437 157.981 C 233.712 158.256,236.797 158.256,237.072 157.981 C 237.216 157.837,237.275 156.783,237.276 154.321 C 237.278 152.419,237.335 150.779,237.403 150.677 C 237.645 150.314,238.274 150.105,239.125 150.105 C 240.937 150.105,241.039 150.335,241.144 154.649 L 241.228 158.098 242.955 158.146 C 245.119 158.207,245.015 158.417,245.015 153.996 L 245.015 150.672 245.609 150.389 C 246.576 149.928,247.942 150.007,248.368 150.549 C 248.695 150.964,248.717 151.207,248.717 154.398 C 248.717 158.477,248.561 158.212,250.929 158.147 L 252.671 158.098 252.717 154.239 C 252.765 150.119,252.652 149.314,251.888 148.343 C 250.662 146.785,247.869 146.814,245.285 148.412 C 244.658 148.799,244.310 148.740,243.834 148.167 C 242.985 147.144,240.356 146.914,238.576 147.708 M333.069 147.545 C 328.828 149.312,328.774 156.316,332.990 157.753 C 334.103 158.132,336.173 158.095,337.232 157.678 C 338.326 157.246,338.269 157.224,338.209 158.056 C 338.095 159.631,335.723 160.067,332.210 159.160 C 331.292 158.923,331.180 159.066,331.176 160.476 C 331.173 161.976,331.778 162.221,335.489 162.221 C 341.517 162.221,342.448 160.920,342.448 152.503 C 342.448 146.902,342.694 147.373,339.783 147.399 C 338.519 147.411,336.651 147.382,335.633 147.334 C 334.108 147.264,333.656 147.301,333.069 147.545 M68.081 147.677 C 67.707 148.051,67.696 154.331,68.067 155.776 C 68.692 158.211,71.476 159.210,74.290 158.010 C 75.681 157.417,75.751 157.410,76.023 157.846 C 76.308 158.302,79.659 158.364,79.831 157.916 C 79.964 157.569,79.964 148.026,79.831 147.679 C 79.701 147.341,76.594 147.285,76.264 147.615 C 76.121 147.758,76.062 148.784,76.062 151.160 C 76.062 154.986,76.045 155.046,74.839 155.404 C 72.317 156.154,71.953 155.660,71.887 151.394 C 71.823 147.244,71.911 147.413,69.822 147.413 C 68.704 147.413,68.281 147.477,68.081 147.677 M135.461 147.844 C 135.276 148.331,135.263 157.016,135.447 157.678 C 135.558 158.079,135.630 158.101,136.987 158.148 C 139.347 158.230,139.165 158.476,139.177 155.192 C 139.192 150.661,139.253 150.573,142.339 150.632 C 143.381 150.652,143.783 150.598,143.893 150.424 C 144.100 150.098,144.085 148.134,143.873 147.738 C 143.564 147.160,141.549 147.420,140.306 148.198 C 139.543 148.675,139.335 148.690,139.335 148.266 C 139.335 147.296,135.815 146.913,135.461 147.844 M145.001 147.525 C 144.840 147.685,144.862 148.494,145.032 148.683 C 145.111 148.771,145.763 150.244,146.480 151.956 C 148.161 155.968,148.436 156.605,148.843 157.422 L 149.180 158.098 151.031 158.147 C 153.694 158.218,153.445 158.397,154.655 155.533 C 155.231 154.167,155.757 152.974,155.822 152.882 C 155.887 152.789,156.114 152.239,156.326 151.658 C 156.538 151.078,156.778 150.562,156.858 150.512 C 156.939 150.463,157.005 150.315,157.005 150.184 C 157.005 150.053,157.200 149.533,157.440 149.027 C 158.125 147.581,158.059 147.505,156.066 147.449 C 153.881 147.388,154.167 147.054,152.518 151.581 C 151.421 154.589,151.387 154.579,149.991 150.870 C 148.630 147.255,148.779 147.413,146.742 147.413 C 145.846 147.413,145.062 147.463,145.001 147.525 M160.299 147.561 C 160.154 147.795,160.122 157.383,160.265 157.804 C 160.431 158.295,163.337 158.389,163.808 157.918 C 164.128 157.598,164.210 148.322,163.898 147.738 C 163.711 147.388,160.503 147.229,160.299 147.561 M308.033 147.791 C 307.983 148.000,307.962 150.404,307.988 153.134 L 308.035 158.098 309.693 158.147 C 310.771 158.178,311.434 158.127,311.586 158.000 C 311.905 157.735,311.937 147.932,311.620 147.615 C 311.204 147.199,308.141 147.350,308.033 147.791 M187.127 149.660 C 187.565 149.861,188.259 151.048,188.057 151.251 C 187.881 151.427,183.878 151.483,183.622 151.312 C 183.363 151.140,183.717 150.093,184.122 149.831 C 184.924 149.313,186.212 149.240,187.127 149.660 M292.722 149.535 C 293.487 149.716,294.248 151.011,293.769 151.316 C 293.486 151.496,289.916 151.481,289.628 151.299 C 289.366 151.133,289.458 150.544,289.823 150.045 C 290.062 149.718,291.529 149.244,291.965 149.353 C 292.103 149.388,292.444 149.470,292.722 149.535 M127.889 149.727 C 128.570 150.069,128.975 151.027,128.552 151.295 C 128.244 151.490,124.684 151.493,124.378 151.299 C 123.877 150.982,124.451 149.974,125.362 149.570 C 125.871 149.345,127.306 149.434,127.889 149.727 M226.274 149.998 C 227.227 151.106,226.807 151.452,224.513 151.449 C 221.990 151.446,221.716 151.267,222.549 150.175 C 223.036 149.537,223.334 149.447,224.802 149.498 C 225.742 149.530,225.926 149.593,226.274 149.998 M262.812 149.780 C 264.689 150.434,264.930 154.573,263.153 155.656 C 260.674 157.168,258.416 154.055,259.723 150.927 C 260.199 149.788,261.476 149.314,262.812 149.780 M278.297 150.031 C 278.654 150.281,278.671 150.402,278.671 152.719 L 278.671 155.145 278.128 155.425 C 275.525 156.772,273.206 153.909,274.634 151.111 C 275.229 149.944,277.300 149.333,278.297 150.031 M338.252 150.117 C 338.519 150.539,338.445 154.355,338.162 154.760 C 337.859 155.192,336.468 155.399,335.465 155.161 C 333.317 154.653,333.409 150.704,335.586 149.971 C 336.343 149.716,338.058 149.810,338.252 150.117 " stroke="none" fill="#e3701e" fill-rule="evenodd"></path></g></svg>