<?xml version="1.0" standalone="no"?><!DOCTYPE svg PUBLIC "-//W3C//DTD SVG 1.1//EN" "http://www.w3.org/Graphics/SVG/1.1/DTD/svg11.dtd"><svg width="100%" height="100%" viewBox="0 0 466 364" version="1.1" xmlns="http://www.w3.org/2000/svg" xmlns:xlink="http://www.w3.org/1999/xlink" xml:space="preserve" style="fill-rule:evenodd;clip-rule:evenodd;stroke-linejoin:round;stroke-miterlimit:1.41421;"><path d="M415.888,363.926l-365.888,0c-27.5,0 -50,-22.5 -50,-50l0,-263.925c0,-27.5 22.5,-50 50,-50l365.888,0c27.5,0 50,22.5 50,50l0,263.925c0,27.5 -22.5,50 -50,50" style="fill:#fff;fill-rule:nonzero;"/><path d="M51.939,185.579l-51.937,0l236.754,-185.579l160.404,131.933l0,42.046l-163.454,-131.942l-181.767,143.542Z" style="fill:#e36f1e;fill-rule:nonzero;"/><path d="M410.899,249.375l54.988,0l-232.184,-184.142l-164.966,126.146l0,142.1c0,0 35.937,-33.162 109.987,-52.2c73.313,-18.85 163.438,10.146 163.438,10.146c0,0 -59.571,-37.7 -129.834,-37.7c-70.262,0 -111.508,26.1 -111.508,26.1l0,-71.042l131.358,-102.95l178.721,143.542Z" style="fill:#003d7e;fill-rule:nonzero;"/><rect x="198.581" y="162.375" width="29.021" height="27.554" style="fill:#e36f1e;fill-rule:nonzero;"/><rect x="239.194" y="162.375" width="29.025" height="27.554" style="fill:#e36f1e;fill-rule:nonzero;"/><rect x="198.581" y="200.967" width="29.021" height="27.542" style="fill:#e36f1e;fill-rule:nonzero;"/><rect x="239.194" y="200.967" width="29.025" height="27.542" style="fill:#e36f1e;fill-rule:nonzero;"/><path d="M362.012,231.978l0,84.1c0,0 -41.242,-27.554 -116.096,-27.554c-74.837,0 -126.775,42.054 -126.775,42.054c0,0 71.804,-34.804 154.288,-13.05c82.483,21.742 123.729,46.396 123.729,46.396l0,-108.746l-35.146,-23.2Z" style="fill:#e36f1e;fill-rule:nonzero;"/></svg>